<?xml version="1.0" encoding="UTF-8"?>
<svg id="Layer_1" xmlns="http://www.w3.org/2000/svg" version="1.1" viewBox="0 0 1366 768">
  <!-- Generator: Adobe Illustrator 29.8.2, SVG Export Plug-In . SVG Version: 2.1.1 Build 3)  -->
  <defs>
    <style>
      .st0 {
        fill: #fff;
      }

      .st1 {
        stroke: #fff;
        stroke-width: 4px;
      }

      .st1, .st2 {
        fill: none;
      }

      .st3 {
        isolation: isolate;
      }

      .st4 {
        fill: #0abafd;
      }

      .st2 {
        stroke: #0abafd;
        stroke-width: 6.4px;
      }
    </style>
  </defs>
  <g class="st3">
    <g class="st3">
      <g class="st3">
        <path class="st0" d="M169.4,242.2c-6.5-7.1-9.8-17-9.8-29.9v-88.5c0-12.9,3.3-22.8,9.8-29.9,6.5-7.1,16-10.6,28.4-10.6s21.9,3.5,28.4,10.6c6.5,7.1,9.8,17,9.8,29.9v17.4h-24.5v-19.1c0-10.2-4.3-15.3-12.9-15.3s-12.9,5.1-12.9,15.3v92c0,10,4.3,15.1,12.9,15.1s12.9-5,12.9-15.1v-25.2h24.5v23.3c0,12.9-3.3,22.8-9.8,29.9-6.5,7.1-16,10.6-28.4,10.6s-21.9-3.5-28.4-10.6Z"/>
        <path class="st0" d="M273.1,180.3l-31.3-94.6h27.5l17.7,60.5h.5l17.7-60.5h25.2l-31.3,94.6v70.1h-25.9v-70.1Z"/>
        <path class="st0" d="M342,85.6h39.1c13.3,0,23.1,3.1,29.2,9.3,6.1,6.2,9.2,15.7,9.2,28.6v6.6c0,8.5-1.4,15.4-4.1,20.7-2.7,5.3-6.9,9.2-12.6,11.5v.5c12.9,4.4,19.3,15.9,19.3,34.4v14.1c0,12.7-3.3,22.4-10,29.1-6.7,6.7-16.4,10-29.3,10h-40.7V85.6ZM378.1,152.7c5.2,0,9.1-1.3,11.7-4,2.6-2.7,3.9-7.1,3.9-13.4v-9.2c0-6-1.1-10.3-3.2-12.9-2.1-2.7-5.5-4-10-4h-12.5v43.5h10.1ZM382.8,226.9c4.5,0,7.9-1.2,10.1-3.6,2.2-2.4,3.3-6.6,3.3-12.6v-14.4c0-7.5-1.3-12.7-3.9-15.7-2.6-2.9-6.9-4.4-12.8-4.4h-11.5v50.6h14.8Z"/>
        <path class="st0" d="M437.1,85.6h70.6v23.5h-44.7v43.5h35.5v23.5h-35.5v50.6h44.7v23.5h-70.6V85.6Z"/>
        <path class="st0" d="M522.6,85.6h38.4c13.3,0,23.1,3.1,29.2,9.3,6.1,6.2,9.2,15.7,9.2,28.6v10.1c0,17.1-5.6,27.9-16.9,32.5v.5c6.3,1.9,10.7,5.7,13.3,11.5,2.6,5.8,3.9,13.6,3.9,23.3v29c0,4.7.2,8.5.5,11.4.3,2.9,1.1,5.8,2.4,8.6h-26.4c-.9-2.7-1.6-5.2-1.9-7.5-.3-2.4-.5-6.6-.5-12.7v-30.1c0-7.5-1.2-12.8-3.6-15.8-2.4-3-6.6-4.5-12.6-4.5h-8.9v70.6h-25.9V85.6ZM557.9,156.2c5.2,0,9.1-1.3,11.7-4,2.6-2.7,3.9-7.1,3.9-13.4v-12.7c0-6-1.1-10.3-3.2-12.9-2.1-2.7-5.5-4-10-4h-11.8v47.1h9.4Z"/>
        <path class="st0" d="M660.3,242c-6.4-7.1-9.7-17.4-9.7-30.7v-9.4h24.5v11.3c0,10.7,4.5,16,13.4,16s7.7-1.3,10-3.9c2.3-2.6,3.4-6.8,3.4-12.6s-1.6-13-4.7-18.2c-3.1-5.3-8.9-11.6-17.4-19-10.7-9.4-18.1-17.9-22.4-25.5-4.2-7.6-6.4-16.2-6.4-25.8s3.3-23.1,9.9-30.2c6.6-7.1,16.2-10.7,28.7-10.7s21.8,3.6,28.1,10.7c6.4,7.1,9.5,17.4,9.5,30.7v6.8h-24.5v-8.5c0-5.6-1.1-9.8-3.3-12.4-2.2-2.6-5.4-3.9-9.7-3.9-8.6,0-12.9,5.3-12.9,15.8s1.6,11.5,4.8,16.7c3.2,5.2,9.1,11.5,17.5,18.8,10.8,9.4,18.3,18,22.4,25.7,4.1,7.7,6.1,16.7,6.1,27.1s-3.3,23.9-10,31.1c-6.7,7.2-16.4,10.8-29.1,10.8s-22.1-3.6-28.5-10.7Z"/>
        <path class="st0" d="M742.7,85.6h70.6v23.5h-44.7v43.5h35.5v23.5h-35.5v50.6h44.7v23.5h-70.6V85.6Z"/>
        <path class="st0" d="M836.3,242.2c-6.5-7.1-9.8-17-9.8-29.9v-88.5c0-12.9,3.3-22.8,9.8-29.9,6.5-7.1,16-10.6,28.4-10.6s21.9,3.5,28.4,10.6c6.5,7.1,9.8,17,9.8,29.9v17.4h-24.5v-19.1c0-10.2-4.3-15.3-12.9-15.3s-12.9,5.1-12.9,15.3v92c0,10,4.3,15.1,12.9,15.1s12.9-5,12.9-15.1v-25.2h24.5v23.3c0,12.9-3.3,22.8-9.8,29.9-6.5,7.1-16,10.6-28.4,10.6s-21.9-3.5-28.4-10.6Z"/>
        <path class="st0" d="M927.2,242c-6.6-7.1-9.9-17.4-9.9-30.7v-125.7h25.9v127.6c0,5.6,1.1,9.7,3.4,12.2,2.3,2.5,5.5,3.8,9.8,3.8s7.5-1.3,9.8-3.8c2.3-2.5,3.4-6.6,3.4-12.2v-127.6h25v125.7c0,13.3-3.3,23.6-9.9,30.7-6.6,7.1-16.2,10.7-28.7,10.7s-22.1-3.6-28.7-10.7Z"/>
        <path class="st0" d="M1012.9,85.6h38.4c13.3,0,23.1,3.1,29.2,9.3,6.1,6.2,9.2,15.7,9.2,28.6v10.1c0,17.1-5.6,27.9-16.9,32.5v.5c6.3,1.9,10.7,5.7,13.3,11.5,2.6,5.8,3.9,13.6,3.9,23.3v29c0,4.7.2,8.5.5,11.4.3,2.9,1.1,5.8,2.4,8.6h-26.4c-.9-2.7-1.6-5.2-1.9-7.5-.3-2.4-.5-6.6-.5-12.7v-30.1c0-7.5-1.2-12.8-3.6-15.8-2.4-3-6.6-4.5-12.6-4.5h-8.9v70.6h-25.9V85.6ZM1048.2,156.2c5.2,0,9.1-1.3,11.7-4,2.6-2.7,3.9-7.1,3.9-13.4v-12.7c0-6-1.1-10.3-3.2-12.9-2.1-2.7-5.5-4-10-4h-11.8v47.1h9.4Z"/>
        <path class="st0" d="M1107.8,85.6h25.9v164.8h-25.9V85.6Z"/>
        <path class="st0" d="M1173.2,109.2h-27.1v-23.5h80v23.5h-27.1v141.2h-25.9V109.2Z"/>
        <path class="st0" d="M1263.4,180.3l-31.3-94.6h27.5l17.7,60.5h.5l17.7-60.5h25.2l-31.3,94.6v70.1h-25.9v-70.1Z"/>
      </g>
    </g>
  </g>
  <g class="st3">
    <g class="st3">
      <g class="st3">
        <path class="st4" d="M168.3,530.4c11.2-9.2,19.9-16.8,26.4-22.7,6.4-5.9,11.9-12.1,16.3-18.6s6.7-12.8,6.7-18.9-1.1-8.3-3.2-10.9c-2.2-2.6-5.4-3.9-9.7-3.9s-7.7,1.6-10.2,4.9c-2.4,3.2-3.7,7.8-3.7,13.7h-28.2c.2-9.7,2.3-17.8,6.2-24.2s9.1-11.3,15.5-14.3c6.4-3.1,13.6-4.6,21.4-4.6,13.5,0,23.8,3.5,30.6,10.4,6.9,6.9,10.3,16,10.3,27.1s-4.2,23.5-12.5,33.9c-8.3,10.4-18.9,20.6-31.8,30.5h46.1v23.7h-85.7v-21.7c3.9-3.1,5.6-4.5,5.3-4.3Z"/>
        <path class="st4" d="M272.9,447.8c7.6-11.3,19.8-16.9,36.6-16.9s29,5.6,36.6,16.9c7.6,11.3,11.4,26.7,11.4,46.3s-3.8,35.3-11.4,46.6c-7.6,11.3-19.8,16.9-36.6,16.9s-29-5.6-36.6-16.9c-7.6-11.3-11.4-26.8-11.4-46.6s3.8-35,11.4-46.3ZM325.1,467.5c-2.5-6.2-7.7-9.3-15.5-9.3s-13,3.1-15.5,9.3c-2.5,6.2-3.8,15.1-3.8,26.5s.5,14.1,1.4,19.2c.9,5.1,2.8,9.2,5.5,12.3,2.8,3.1,6.9,4.7,12.4,4.7s9.6-1.6,12.4-4.7c2.8-3.1,4.6-7.2,5.5-12.3.9-5.1,1.4-11.5,1.4-19.2,0-11.5-1.3-20.3-3.8-26.5Z"/>
        <path class="st4" d="M377.1,530.4c11.2-9.2,19.9-16.8,26.4-22.7,6.4-5.9,11.9-12.1,16.3-18.6s6.7-12.8,6.7-18.9-1.1-8.3-3.2-10.9c-2.2-2.6-5.4-3.9-9.7-3.9s-7.7,1.6-10.2,4.9c-2.4,3.2-3.7,7.8-3.7,13.7h-28.2c.2-9.7,2.3-17.8,6.2-24.2s9.1-11.3,15.5-14.3c6.4-3.1,13.6-4.6,21.4-4.6,13.5,0,23.8,3.5,30.6,10.4,6.9,6.9,10.3,16,10.3,27.1s-4.2,23.5-12.5,33.9c-8.3,10.4-18.9,20.6-31.8,30.5h46.1v23.7h-85.7v-21.7c3.9-3.1,5.6-4.5,5.3-4.3Z"/>
        <path class="st4" d="M558.1,458.9h-53.3v23.6c2.3-2.5,5.5-4.5,9.6-6.1,4.1-1.6,8.5-2.4,13.3-2.4,8.5,0,15.6,1.9,21.3,5.8,5.6,3.9,9.8,8.9,12.4,15,2.6,6.1,3.9,12.8,3.9,20,0,13.3-3.8,23.9-11.3,31.7-7.5,7.8-18.1,11.7-31.8,11.7s-17-1.6-23.7-4.7c-6.7-3.1-11.9-7.5-15.5-13.1-3.6-5.6-5.6-12-6-19.3h28.5c.7,3.5,2.3,6.5,5,8.8,2.6,2.3,6.2,3.5,10.8,3.5s9.3-1.7,11.9-5.1c2.6-3.4,3.9-8,3.9-13.7s-1.4-9.8-4.1-12.8c-2.7-3-6.7-4.4-11.9-4.4s-7.1.9-9.6,2.8c-2.5,1.9-4.2,4.4-5,7.4h-28.2v-74.3h79.7v25.6Z"/>
      </g>
    </g>
    <g class="st3">
      <g class="st3">
        <path class="st0" d="M643.2,467.1c4.5-2.3,9.5-3.4,15.1-3.4s12.4,1.6,17.7,4.7c5.3,3.1,9.4,7.6,12.5,13.3,3,5.8,4.6,12.3,4.6,19.8s-1.5,14-4.6,19.9c-3,5.8-7.2,10.4-12.5,13.7-5.3,3.3-11.2,4.9-17.6,4.9s-10.8-1.1-15.2-3.3c-4.4-2.2-7.9-5.1-10.5-8.6v10.7h-15.3v-99.1h15.3v36.3c2.6-3.6,6.1-6.5,10.6-8.8ZM674.2,488.3c-2.1-3.7-4.9-6.5-8.3-8.4-3.4-1.9-7.1-2.9-11-2.9s-7.5,1-10.9,2.9c-3.4,2-6.2,4.8-8.3,8.6-2.1,3.8-3.1,8.2-3.1,13.3s1,9.5,3.1,13.3c2.1,3.8,4.9,6.7,8.3,8.6,3.4,2,7.1,2.9,10.9,2.9s7.6-1,11-3c3.4-2,6.2-4.9,8.3-8.8,2.1-3.8,3.1-8.3,3.1-13.4s-1.1-9.5-3.1-13.2Z"/>
        <path class="st0" d="M774.4,464.9l-45.3,108.5h-15.8l15-35.9-29.1-72.6h17l20.8,56.2,21.6-56.2h15.8Z"/>
      </g>
    </g>
    <g class="st3">
      <g class="st3">
        <path class="st0" d="M824.3,433.7h33.8c17.2,0,29.5,3.1,37,9.2,7.5,6.1,11.3,16,11.3,29.8s-3.8,23.6-11.3,29.8c-7.5,6.1-19.9,9.2-37,9.2h-9.2v46.6h-24.6v-124.4ZM848.9,454.3v36.5h10.1c8.1,0,13.7-1.4,17-4.1,3.3-2.7,4.9-7.4,4.9-14.2s-1.6-11.4-4.9-14.2c-3.2-2.7-8.9-4.1-17-4.1h-10.1Z"/>
        <path class="st0" d="M922.4,512.2v-78.5h24.6v84.7c0,6.2,1.6,11.1,4.8,14.6,3.2,3.5,7.6,5.3,13.2,5.3s10-1.8,13.2-5.3c3.2-3.5,4.8-8.4,4.8-14.6v-84.7h24.6v78.5c0,16.9-3.4,29.2-10.1,36.8-6.7,7.7-17.5,11.5-32.4,11.5s-25.6-3.8-32.4-11.5-10.1-19.9-10.1-36.8Z"/>
        <path class="st0" d="M1106.4,554.5c-3.9,2-8,3.5-12.3,4.5-4.3,1-8.8,1.5-13.5,1.5-16.8,0-29.6-5.5-38.4-16.6-8.8-11.1-13.3-27-13.3-47.9s4.4-37,13.3-48,21.6-16.6,38.4-16.6,9.3.5,13.6,1.5c4.3,1,8.4,2.5,12.2,4.5v27.3c-4.2-3.9-8.3-6.7-12.3-8.5s-8.1-2.7-12.3-2.7c-9,0-15.8,3.6-20.4,10.7-4.6,7.1-6.9,17.7-6.9,31.8s2.3,24.6,6.9,31.7c4.6,7.1,11.4,10.7,20.4,10.7s8.3-.9,12.3-2.7,8.1-4.7,12.3-8.5v27.3Z"/>
        <path class="st0" d="M1161.6,503.5c-12.4-4.7-20.8-9.7-25.2-14.9-4.4-5.2-6.6-12.2-6.6-21s3.6-20.1,10.8-26.6c7.2-6.4,17.1-9.7,29.8-9.7s11.4.7,17.2,2c5.7,1.3,11.4,3.2,17,5.8v24c-5.3-3.7-10.6-6.6-16.1-8.5-5.4-1.9-10.8-2.9-16.2-2.9s-10.5,1.2-13.7,3.6c-3.2,2.4-4.8,5.8-4.8,10.3s1.2,6.3,3.5,8.5c2.3,2.2,7.1,4.7,14.5,7.5l10.6,4c10,3.7,17.4,8.5,22.1,14.6,4.7,6.1,7.1,13.7,7.1,22.9s-3.7,21.9-11.1,28.1c-7.4,6.2-18.6,9.3-33.6,9.3s-12.3-.7-18.5-2.2c-6.2-1.5-12.2-3.7-18-6.5v-25.4c6.6,4.7,12.9,8.1,19,10.4,6.1,2.3,12.2,3.4,18.2,3.4s10.8-1.4,14.1-4.1c3.3-2.8,5-6.6,5-11.5s-1.1-7-3.3-9.8c-2.2-2.8-5.4-5-9.7-6.6l-12.1-4.6Z"/>
        <path class="st0" d="M1312,554.5c-3.9,2-8,3.5-12.3,4.5-4.3,1-8.8,1.5-13.5,1.5-16.8,0-29.6-5.5-38.4-16.6-8.8-11.1-13.3-27-13.3-47.9s4.4-37,13.3-48,21.6-16.6,38.4-16.6,9.3.5,13.6,1.5c4.3,1,8.4,2.5,12.2,4.5v27.3c-4.2-3.9-8.3-6.7-12.3-8.5s-8.1-2.7-12.3-2.7c-9,0-15.8,3.6-20.4,10.7-4.6,7.1-6.9,17.7-6.9,31.8s2.3,24.6,6.9,31.7c4.6,7.1,11.4,10.7,20.4,10.7s8.3-.9,12.3-2.7,8.1-4.7,12.3-8.5v27.3Z"/>
      </g>
    </g>
  </g>
  <g class="st3">
    <g class="st3">
      <g class="st3">
        <path class="st1" d="M271.7,280.9v123.4h-30.1v-50.8h-46.8v50.8h-30.1v-123.4h30.1v48.3h46.8v-48.3h30.1Z"/>
        <path class="st1" d="M370.1,382.5h-46.1l-7.4,21.8h-31.5l44.7-123.4h34.8l44.7,123.4h-31.8l-7.4-21.8ZM362.4,359.3l-15.3-45.2-15.1,45.2h30.4Z"/>
        <path class="st1" d="M425.7,309.8c5.3-9.6,12.6-17,22.1-22.3,9.4-5.3,20.1-8,32.1-8s27.2,3.9,37.6,11.6c10.4,7.7,17.4,18.3,20.9,31.6h-33.1c-2.5-5.2-5.9-9.1-10.5-11.8-4.5-2.7-9.6-4-15.4-4-9.3,0-16.8,3.2-22.5,9.7-5.7,6.4-8.6,15.1-8.6,25.8s2.9,19.4,8.6,25.8c5.7,6.4,13.2,9.7,22.5,9.7s10.9-1.3,15.4-4c4.5-2.7,8-6.6,10.5-11.8h33.1c-3.5,13.4-10.5,23.9-20.9,31.6-10.4,7.7-23,11.5-37.6,11.5s-22.7-2.7-32.1-8c-9.4-5.3-16.8-12.7-22.1-22.2s-7.9-20.3-7.9-32.5,2.6-23.1,7.9-32.6Z"/>
        <path class="st1" d="M628.4,404.3l-41.5-54.5v54.5h-30.1v-123.4h30.1v54.1l41.1-54.1h35.3l-47.8,60.5,49.6,62.9h-36.7Z"/>
        <path class="st1" d="M756.2,382.5h-46.1l-7.4,21.8h-31.5l44.7-123.4h34.8l44.7,123.4h-31.8l-7.4-21.8ZM748.5,359.3l-15.3-45.2-15.1,45.2h30.4Z"/>
        <path class="st1" d="M897.7,280.9v24.1h-32.7v99.3h-30.1v-99.3h-32.7v-24.1h95.5Z"/>
        <path class="st1" d="M1019.7,280.9v123.4h-30.1v-50.8h-46.8v50.8h-30.1v-123.4h30.1v48.3h46.8v-48.3h30.1Z"/>
        <path class="st1" d="M1067.8,397.4c-9.7-5.4-17.3-12.9-23-22.6-5.7-9.7-8.5-20.5-8.5-32.6s2.8-22.9,8.5-32.5c5.7-9.6,13.4-17.1,23-22.5,9.7-5.4,20.3-8.1,31.9-8.1s22.2,2.7,31.9,8.1c9.7,5.4,17.3,12.9,22.9,22.5,5.6,9.6,8.3,20.5,8.3,32.5s-2.8,22.9-8.4,32.6c-5.6,9.7-13.2,17.2-22.9,22.6-9.6,5.4-20.2,8.1-31.8,8.1s-22.2-2.7-31.9-8.1ZM1123.3,368.3c5.9-6.6,8.9-15.2,8.9-26s-3-19.6-8.9-26.1c-5.9-6.5-13.8-9.8-23.6-9.8s-17.9,3.2-23.8,9.7c-5.9,6.4-8.9,15.2-8.9,26.2s3,19.6,8.9,26.1c5.9,6.5,13.9,9.8,23.8,9.8s17.7-3.3,23.6-9.8Z"/>
        <path class="st1" d="M1289.9,404.3h-30.1l-50.3-76.1v76.1h-30.1v-123.4h30.1l50.3,76.5v-76.5h30.1v123.4Z"/>
      </g>
    </g>
  </g>
  <g class="st3">
    <g class="st3">
      <g class="st3">
        <path class="st0" d="M75.4,554.4c-5.9-3.3-10.5-7.8-13.8-13.6-3.3-5.8-4.9-12.4-4.9-19.8s2.4-16.8,7.2-23.2c4.8-6.4,11.3-10.7,19.5-12.9v20.4c-3.2,1.5-5.6,3.7-7.3,6.4-1.7,2.8-2.5,5.9-2.5,9.5,0,5.7,2,10.3,6,13.9,4,3.5,9.3,5.3,15.9,5.3s12-1.8,15.9-5.3c4-3.5,6-8.2,6-13.9s-.8-6.7-2.5-9.5c-1.7-2.8-4.1-4.9-7.3-6.4v-20.4c8.2,2.2,14.7,6.5,19.5,12.9,4.7,6.4,7.1,14.2,7.1,23.2s-1.6,14-4.9,19.8c-3.3,5.8-7.9,10.4-13.7,13.6s-12.5,4.9-20.1,4.9-14.2-1.6-20.1-4.9Z"/>
        <path class="st0" d="M131.7,461c-1.8,4.4-4.5,7.9-8,10.6-3.5,2.6-7.8,4-12.8,4.2v-19.7c2.8-.3,5-1.3,6.4-2.9,1.5-1.7,2.2-3.8,2.2-6.5s-.6-4.9-1.9-6.5c-1.3-1.6-3-2.4-5.3-2.4s-3.4.6-4.7,1.9c-1.2,1.3-2.2,2.8-3,4.7-.8,1.8-1.7,4.5-2.7,7.9-1.5,4.9-3,8.9-4.6,12-1.5,3.1-3.8,5.8-6.7,8-3,2.2-6.8,3.4-11.6,3.4-7.1,0-12.6-2.6-16.6-7.7-4-5.1-6-11.8-6-20.1s2-15.1,6-20.3c4-5.1,9.6-7.9,16.7-8.2v20.1c-2.5.1-4.4,1-5.8,2.7-1.4,1.7-2.1,3.8-2.1,6.4s.6,4,1.8,5.4c1.2,1.4,2.9,2.1,5.1,2.1s4.4-1.2,5.7-3.5c1.4-2.3,2.9-5.9,4.4-10.8,1.7-4.9,3.3-8.9,4.8-12,1.5-3.1,3.7-5.7,6.6-8,2.9-2.2,6.6-3.4,11.2-3.4s8.3,1.1,11.8,3.3c3.5,2.2,6.4,5.4,8.5,9.6,2.1,4.2,3.1,9.1,3.1,14.9s-.9,10.6-2.7,15Z"/>
        <path class="st0" d="M72.5,388.4h15.4v-24.8h14.3v24.8h16.7v-28.1h14.9v46.6H57.6v-46.6h14.9v28.1Z"/>
      </g>
    </g>
    <g class="st3">
      <g class="st3">
        <path class="st4" d="M57.6,275.7h14.9v31h16v-23.2h14.4v23.2h30.8v18.5H57.6v-49.5Z"/>
        <path class="st4" d="M72.5,247.4h15.4v-24.8h14.3v24.8h16.7v-28.1h14.9v46.6H57.6v-46.6h14.9v28.1Z"/>
        <path class="st4" d="M131.7,194.8c-1.8,4.4-4.5,7.9-8,10.6-3.5,2.6-7.8,4-12.8,4.2v-19.7c2.8-.3,5-1.3,6.4-2.9,1.5-1.7,2.2-3.8,2.2-6.5s-.6-4.9-1.9-6.5c-1.3-1.6-3-2.4-5.3-2.4s-3.4.6-4.7,1.9c-1.2,1.3-2.2,2.8-3,4.7-.8,1.8-1.7,4.5-2.7,7.9-1.5,4.9-3,8.9-4.6,12-1.5,3.1-3.8,5.8-6.7,8-3,2.2-6.8,3.4-11.6,3.4-7.1,0-12.6-2.6-16.6-7.7-4-5.1-6-11.8-6-20.1s2-15.1,6-20.3c4-5.1,9.6-7.9,16.7-8.2v20.1c-2.5.1-4.4,1-5.8,2.7-1.4,1.7-2.1,3.8-2.1,6.4s.6,4,1.8,5.4c1.2,1.4,2.9,2.1,5.1,2.1s4.4-1.2,5.7-3.5c1.4-2.3,2.9-5.9,4.4-10.8,1.7-4.9,3.3-8.9,4.8-12,1.5-3.1,3.7-5.7,6.6-8,2.9-2.2,6.6-3.4,11.2-3.4s8.3,1.1,11.8,3.3c3.5,2.2,6.4,5.4,8.5,9.6,2.1,4.2,3.1,9.1,3.1,14.9s-.9,10.6-2.7,15Z"/>
        <path class="st4" d="M57.6,85.9h14.9v20.2h61.2v18.5h-61.2v20.2h-14.9v-58.9Z"/>
      </g>
    </g>
  </g>
  <g class="st3">
    <g class="st3">
      <g class="st3">
        <path class="st0" d="M121.7,625.5c4.2,2.1,7.4,5.2,9.6,9.1,2.2,4,3.3,8.6,3.3,14s-1.1,10-3.3,13.9c-2.2,3.9-5.4,6.9-9.6,9-4.2,2.1-9.1,3.1-14.8,3.1h-16.3v-52.3h16.3c5.7,0,10.7,1.1,14.8,3.2ZM122.3,663.7c3.6-3.6,5.3-8.6,5.3-15.1s-1.8-11.6-5.4-15.2c-3.6-3.7-8.7-5.5-15.4-5.5h-9.5v41.2h9.5c6.8,0,11.9-1.8,15.5-5.4Z"/>
        <path class="st0" d="M181,656.7h-32.9c.2,4.1,1.6,7.2,4.2,9.5,2.5,2.3,5.6,3.4,9.2,3.4s5.4-.7,7.4-2.1c2-1.4,3.4-3.2,4.2-5.5h7.4c-1.1,4-3.3,7.2-6.6,9.7-3.3,2.5-7.4,3.7-12.3,3.7s-7.4-.9-10.5-2.6c-3.1-1.8-5.5-4.2-7.2-7.5-1.8-3.2-2.6-7-2.6-11.2s.9-8,2.6-11.2c1.7-3.2,4.1-5.7,7.2-7.4,3.1-1.7,6.6-2.6,10.6-2.6s7.4.9,10.4,2.6c3,1.7,5.3,4,6.9,7,1.6,3,2.4,6.3,2.4,10.1s0,2.7-.2,4.1ZM172.4,644.4c-1.2-1.9-2.7-3.3-4.7-4.3-2-1-4.2-1.5-6.6-1.5-3.5,0-6.4,1.1-8.8,3.3-2.4,2.2-3.8,5.3-4.2,9.2h26c0-2.6-.6-4.8-1.7-6.7Z"/>
        <path class="st0" d="M207,639.2h-8.6v35.5h-6.8v-35.5h-5.3v-5.6h5.3v-2.9c0-4.6,1.2-8,3.6-10.1,2.4-2.1,6.2-3.2,11.5-3.2v5.7c-3,0-5.1.6-6.3,1.8-1.2,1.2-1.8,3.1-1.8,5.8v2.9h8.6v5.6Z"/>
        <path class="st0" d="M252.3,656.7h-32.9c.2,4.1,1.6,7.2,4.2,9.5,2.5,2.3,5.6,3.4,9.2,3.4s5.4-.7,7.4-2.1c2-1.4,3.4-3.2,4.2-5.5h7.4c-1.1,4-3.3,7.2-6.6,9.7-3.3,2.5-7.4,3.7-12.3,3.7s-7.4-.9-10.5-2.6c-3.1-1.8-5.5-4.2-7.2-7.5-1.8-3.2-2.6-7-2.6-11.2s.9-8,2.6-11.2c1.7-3.2,4.1-5.7,7.2-7.4,3.1-1.7,6.6-2.6,10.6-2.6s7.4.9,10.4,2.6c3,1.7,5.3,4,6.9,7,1.6,3,2.4,6.3,2.4,10.1s0,2.7-.2,4.1ZM243.7,644.4c-1.2-1.9-2.7-3.3-4.7-4.3-2-1-4.2-1.5-6.6-1.5-3.5,0-6.4,1.1-8.8,3.3-2.4,2.2-3.8,5.3-4.2,9.2h26c0-2.6-.6-4.8-1.7-6.7Z"/>
        <path class="st0" d="M293.7,637.3c3.1,3,4.7,7.4,4.7,13.1v24.3h-6.8v-23.3c0-4.1-1-7.2-3.1-9.4-2.1-2.2-4.9-3.3-8.4-3.3s-6.5,1.1-8.6,3.4c-2.1,2.3-3.2,5.5-3.2,9.8v22.8h-6.8v-41.2h6.8v5.9c1.4-2.1,3.2-3.7,5.5-4.9,2.3-1.2,4.9-1.7,7.7-1.7,5,0,9.1,1.5,12.2,4.5Z"/>
        <path class="st0" d="M309.6,642.9c1.7-3.2,4-5.6,7-7.4,3-1.8,6.3-2.6,10-2.6s6.2.7,8.9,2.2c2.8,1.5,4.9,3.4,6.3,5.8v-21.8h6.9v55.6h-6.9v-7.7c-1.4,2.5-3.4,4.5-6,6-2.7,1.6-5.8,2.4-9.3,2.4s-7-.9-10-2.7c-3-1.8-5.3-4.3-7-7.6-1.7-3.3-2.6-7-2.6-11.1s.9-7.9,2.6-11.1ZM340,645.9c-1.3-2.3-2.9-4.1-5.1-5.3-2.1-1.2-4.5-1.8-7-1.8s-4.9.6-7,1.8c-2.1,1.2-3.8,3-5,5.3-1.3,2.3-1.9,5-1.9,8.1s.6,5.9,1.9,8.2c1.3,2.3,2.9,4.1,5,5.3,2.1,1.2,4.4,1.8,7,1.8s4.9-.6,7-1.8c2.1-1.2,3.8-3,5.1-5.3,1.3-2.3,1.9-5,1.9-8.1s-.6-5.8-1.9-8.1Z"/>
      </g>
    </g>
    <g class="st3">
      <g class="st3">
        <path class="st4" d="M423.7,656.2c-1.8-1.8-2.7-3.9-2.7-6.5s.9-4.8,2.7-6.6c1.8-1.8,3.9-2.7,6.5-2.7s4.8.9,6.6,2.7c1.8,1.8,2.7,4,2.7,6.6s-.9,4.7-2.7,6.5c-1.8,1.8-4,2.7-6.6,2.7s-4.7-.9-6.5-2.7Z"/>
      </g>
    </g>
    <g class="st3">
      <g class="st3">
        <path class="st0" d="M542.9,625.5c4.2,2.1,7.4,5.2,9.6,9.1,2.2,4,3.3,8.6,3.3,14s-1.1,10-3.3,13.9c-2.2,3.9-5.4,6.9-9.6,9-4.2,2.1-9.1,3.1-14.8,3.1h-16.3v-52.3h16.3c5.7,0,10.7,1.1,14.8,3.2ZM543.5,663.7c3.6-3.6,5.3-8.6,5.3-15.1s-1.8-11.6-5.4-15.2c-3.6-3.7-8.7-5.5-15.4-5.5h-9.5v41.2h9.5c6.8,0,11.9-1.8,15.5-5.4Z"/>
        <path class="st0" d="M602.2,656.7h-32.9c.2,4.1,1.6,7.2,4.2,9.5,2.5,2.3,5.6,3.4,9.2,3.4s5.4-.7,7.4-2.1c2-1.4,3.4-3.2,4.2-5.5h7.4c-1.1,4-3.3,7.2-6.6,9.7-3.3,2.5-7.4,3.7-12.3,3.7s-7.4-.9-10.5-2.6c-3.1-1.8-5.5-4.2-7.2-7.5-1.8-3.2-2.6-7-2.6-11.2s.9-8,2.6-11.2c1.7-3.2,4.1-5.7,7.2-7.4,3.1-1.7,6.6-2.6,10.6-2.6s7.4.9,10.4,2.6c3,1.7,5.3,4,6.9,7,1.6,3,2.4,6.3,2.4,10.1s0,2.7-.2,4.1ZM593.6,644.4c-1.2-1.9-2.7-3.3-4.7-4.3-2-1-4.2-1.5-6.6-1.5-3.5,0-6.4,1.1-8.8,3.3-2.4,2.2-3.8,5.3-4.2,9.2h26c0-2.6-.6-4.8-1.7-6.7Z"/>
        <path class="st0" d="M619.7,639.2v24.3c0,2,.4,3.4,1.3,4.2.9.8,2.3,1.2,4.4,1.2h5v5.8h-6.2c-3.8,0-6.7-.9-8.6-2.6-1.9-1.8-2.9-4.6-2.9-8.6v-24.3h-5.3v-5.6h5.3v-10.4h6.8v10.4h10.7v5.6h-10.7Z"/>
        <path class="st0" d="M676.1,656.7h-32.9c.2,4.1,1.6,7.2,4.2,9.5,2.5,2.3,5.6,3.4,9.2,3.4s5.4-.7,7.4-2.1c2-1.4,3.4-3.2,4.2-5.5h7.4c-1.1,4-3.3,7.2-6.6,9.7-3.3,2.5-7.4,3.7-12.3,3.7s-7.4-.9-10.5-2.6c-3.1-1.8-5.5-4.2-7.2-7.5-1.8-3.2-2.6-7-2.6-11.2s.9-8,2.6-11.2c1.7-3.2,4.1-5.7,7.2-7.4,3.1-1.7,6.6-2.6,10.6-2.6s7.4.9,10.4,2.6c3,1.7,5.3,4,6.9,7,1.6,3,2.4,6.3,2.4,10.1s0,2.7-.2,4.1ZM667.5,644.4c-1.2-1.9-2.7-3.3-4.7-4.3-2-1-4.2-1.5-6.6-1.5-3.5,0-6.4,1.1-8.8,3.3-2.4,2.2-3.8,5.3-4.2,9.2h26c0-2.6-.6-4.8-1.7-6.7Z"/>
        <path class="st0" d="M685.3,642.9c1.7-3.2,4.1-5.6,7.1-7.4,3-1.8,6.5-2.6,10.4-2.6s9.2,1.2,12.5,3.7,5.4,5.9,6.5,10.2h-7.4c-.7-2.5-2.1-4.5-4.1-5.9-2-1.5-4.5-2.2-7.5-2.2s-7.1,1.3-9.5,4c-2.4,2.7-3.6,6.5-3.6,11.4s1.2,8.8,3.6,11.5c2.4,2.7,5.6,4.1,9.5,4.1s5.5-.7,7.5-2.1c2-1.4,3.4-3.4,4.1-6h7.4c-1.1,4.2-3.3,7.6-6.6,10.1s-7.4,3.8-12.4,3.8-7.4-.9-10.4-2.6c-3-1.8-5.4-4.2-7.1-7.4-1.7-3.2-2.6-7-2.6-11.3s.9-8,2.6-11.2Z"/>
        <path class="st0" d="M739.2,639.2v24.3c0,2,.4,3.4,1.3,4.2.9.8,2.3,1.2,4.4,1.2h5v5.8h-6.2c-3.8,0-6.7-.9-8.6-2.6-1.9-1.8-2.9-4.6-2.9-8.6v-24.3h-5.3v-5.6h5.3v-10.4h6.8v10.4h10.7v5.6h-10.7Z"/>
      </g>
    </g>
    <g class="st3">
      <g class="st3">
        <path class="st4" d="M821.6,656.2c-1.8-1.8-2.7-3.9-2.7-6.5s.9-4.8,2.7-6.6c1.8-1.8,3.9-2.7,6.5-2.7s4.8.9,6.6,2.7,2.7,4,2.7,6.6-.9,4.7-2.7,6.5-4,2.7-6.6,2.7-4.7-.9-6.5-2.7Z"/>
      </g>
    </g>
    <g class="st3">
      <g class="st3">
        <path class="st0" d="M940.7,625.5c4.2,2.1,7.4,5.2,9.6,9.1,2.2,4,3.3,8.6,3.3,14s-1.1,10-3.3,13.9c-2.2,3.9-5.4,6.9-9.6,9-4.2,2.1-9.1,3.1-14.8,3.1h-16.3v-52.3h16.3c5.7,0,10.7,1.1,14.8,3.2ZM941.3,663.7c3.6-3.6,5.3-8.6,5.3-15.1s-1.8-11.6-5.4-15.2c-3.6-3.7-8.7-5.5-15.4-5.5h-9.5v41.2h9.5c6.8,0,11.9-1.8,15.5-5.4Z"/>
        <path class="st0" d="M970.1,672.7c-3.1-1.8-5.6-4.2-7.4-7.5-1.8-3.2-2.7-7-2.7-11.2s.9-7.9,2.7-11.2c1.8-3.2,4.3-5.7,7.5-7.4,3.2-1.7,6.7-2.6,10.6-2.6s7.4.9,10.6,2.6c3.2,1.7,5.6,4.2,7.5,7.4,1.8,3.2,2.7,6.9,2.7,11.2s-.9,8-2.8,11.2c-1.9,3.2-4.4,5.7-7.6,7.5-3.2,1.8-6.8,2.6-10.7,2.6s-7.3-.9-10.5-2.6ZM987.5,667.6c2.2-1.2,3.9-2.9,5.2-5.2,1.3-2.3,2-5.1,2-8.4s-.7-6.1-2-8.4c-1.3-2.3-3-4-5.1-5.1-2.1-1.1-4.4-1.7-6.8-1.7s-4.8.6-6.9,1.7c-2.1,1.1-3.7,2.8-5,5.1-1.3,2.3-1.9,5.1-1.9,8.4s.6,6.2,1.8,8.5c1.2,2.3,2.9,4,4.9,5.1,2.1,1.1,4.3,1.7,6.8,1.7s4.8-.6,6.9-1.7Z"/>
        <path class="st0" d="M1068.7,634.8c2.5,1.3,4.5,3.3,5.9,6,1.5,2.7,2.2,5.9,2.2,9.7v24.3h-6.8v-23.3c0-4.1-1-7.2-3-9.4s-4.8-3.3-8.2-3.3-6.4,1.1-8.5,3.4c-2.1,2.3-3.2,5.6-3.2,9.9v22.7h-6.8v-23.3c0-4.1-1-7.2-3-9.4-2-2.2-4.8-3.3-8.2-3.3s-6.4,1.1-8.5,3.4c-2.1,2.3-3.2,5.6-3.2,9.9v22.7h-6.8v-41.2h6.8v5.9c1.4-2.2,3.2-3.8,5.4-5,2.3-1.2,4.8-1.7,7.5-1.7s6.5.8,9.2,2.3c2.7,1.6,4.6,3.8,5.9,6.8,1.2-2.9,3.1-5.2,5.7-6.8,2.7-1.6,5.6-2.4,8.9-2.4s6.1.7,8.6,2Z"/>
        <path class="st0" d="M1088.3,625.5c-.9-.9-1.4-2-1.4-3.3s.5-2.4,1.4-3.3,2-1.4,3.3-1.4,2.3.5,3.2,1.4c.9.9,1.3,2,1.3,3.3s-.4,2.4-1.3,3.3-1.9,1.4-3.2,1.4-2.4-.5-3.3-1.4ZM1094.9,633.5v41.2h-6.8v-41.2h6.8Z"/>
        <path class="st0" d="M1138.7,637.3c3.1,3,4.7,7.4,4.7,13.1v24.3h-6.8v-23.3c0-4.1-1-7.2-3.1-9.4-2.1-2.2-4.9-3.3-8.4-3.3s-6.5,1.1-8.6,3.4-3.2,5.5-3.2,9.8v22.8h-6.8v-41.2h6.8v5.9c1.4-2.1,3.2-3.7,5.5-4.9,2.3-1.2,4.9-1.7,7.7-1.7,5,0,9.1,1.5,12.2,4.5Z"/>
        <path class="st0" d="M1154.6,642.9c1.7-3.2,4-5.6,7-7.4,3-1.8,6.3-2.6,10-2.6s6.7.8,9.4,2.3c2.7,1.6,4.6,3.5,5.9,5.9v-7.5h6.9v41.2h-6.9v-7.7c-1.4,2.4-3.4,4.4-6,6-2.7,1.6-5.8,2.4-9.4,2.4s-7-.9-9.9-2.7c-3-1.8-5.3-4.3-7-7.6-1.7-3.3-2.6-7-2.6-11.1s.9-7.9,2.6-11.1ZM1185,645.9c-1.3-2.3-2.9-4.1-5.1-5.3-2.1-1.2-4.5-1.8-7-1.8s-4.9.6-7,1.8c-2.1,1.2-3.8,3-5,5.3-1.3,2.3-1.9,5-1.9,8.1s.6,5.9,1.9,8.2c1.3,2.3,2.9,4.1,5,5.3,2.1,1.2,4.4,1.8,7,1.8s4.9-.6,7-1.8c2.1-1.2,3.8-3,5.1-5.3,1.3-2.3,1.9-5,1.9-8.1s-.6-5.8-1.9-8.1Z"/>
        <path class="st0" d="M1213.7,639.2v24.3c0,2,.4,3.4,1.3,4.2.9.8,2.3,1.2,4.4,1.2h5v5.8h-6.2c-3.8,0-6.7-.9-8.6-2.6-1.9-1.8-2.9-4.6-2.9-8.6v-24.3h-5.3v-5.6h5.3v-10.4h6.8v10.4h10.7v5.6h-10.7Z"/>
        <path class="st0" d="M1270,656.7h-32.9c.2,4.1,1.6,7.2,4.2,9.5,2.5,2.3,5.6,3.4,9.2,3.4s5.4-.7,7.4-2.1c2-1.4,3.4-3.2,4.2-5.5h7.4c-1.1,4-3.3,7.2-6.6,9.7-3.3,2.5-7.4,3.7-12.3,3.7s-7.4-.9-10.5-2.6c-3.1-1.8-5.5-4.2-7.2-7.5-1.8-3.2-2.6-7-2.6-11.2s.9-8,2.6-11.2c1.7-3.2,4.1-5.7,7.2-7.4,3.1-1.7,6.6-2.6,10.6-2.6s7.4.9,10.4,2.6c3,1.7,5.3,4,6.9,7,1.6,3,2.4,6.3,2.4,10.1s0,2.7-.2,4.1ZM1261.5,644.4c-1.2-1.9-2.7-3.3-4.7-4.3-2-1-4.2-1.5-6.6-1.5-3.5,0-6.4,1.1-8.8,3.3s-3.8,5.3-4.2,9.2h26c0-2.6-.6-4.8-1.7-6.7Z"/>
      </g>
    </g>
  </g>
  <line class="st2" x1="69.8" y1="591.2" x2="1291.3" y2="591.2"/>
  <line class="st2" x1="69.8" y1="706.6" x2="1291.3" y2="706.6"/>
</svg>