<?xml version="1.0" encoding="UTF-8"?>
<svg id="Layer_1" xmlns="http://www.w3.org/2000/svg" version="1.1" xmlns:xlink="http://www.w3.org/1999/xlink" viewBox="0 0 500 337.1">
  <!-- Generator: Adobe Illustrator 29.8.2, SVG Export Plug-In . SVG Version: 2.1.1 Build 3)  -->
  <defs>
    <style>
      .st0 {
        fill: #f2f4f6;
      }

      .st1, .st2 {
        fill: #287efa;
      }

      .st3 {
        fill: #59b4a5;
      }

      .st4 {
        fill: url(#linear-gradient);
      }

      .st2 {
        stroke: #287efa;
        stroke-miterlimit: 10;
        stroke-width: 2.1px;
      }
    </style>
    <linearGradient id="linear-gradient" x1="92.6" y1="108.3" x2="441.8" y2="310" gradientUnits="userSpaceOnUse">
      <stop offset="0" stop-color="#287efa"/>
      <stop offset="1" stop-color="#59b4a5"/>
    </linearGradient>
  </defs>
  <g>
    <g>
      <g>
        <path class="st3" d="M105.3,175.8c-2.2,3.7-3.8,7.4-4.9,11.1-1.1,3.7-1.6,7.4-1.6,11.2s.5,7.4,1.6,11.1c1.1,3.7,2.7,7.4,4.9,11.2h-3.9c-2.5-3.9-4.3-7.7-5.5-11.3s-1.8-7.3-1.8-11,.6-7.3,1.8-11c1.2-3.7,3-7.4,5.5-11.3h3.9Z"/>
        <path class="st2" d="M110.3,164.9h16.4c8.3,0,14.3,1.5,18,4.5,3.7,3,5.5,7.8,5.5,14.4s-1.8,11.5-5.5,14.4-9.6,4.5-18,4.5h-4.5v22.6h-11.9v-60.4ZM122.2,174.9v17.7h4.9c3.9,0,6.7-.7,8.2-2,1.6-1.3,2.4-3.6,2.4-6.9s-.8-5.6-2.4-6.9-4.3-2-8.2-2h-4.9Z"/>
        <path class="st2" d="M157.9,203v-38.1h11.9v41.1c0,3,.8,5.4,2.3,7.1,1.5,1.7,3.7,2.6,6.4,2.6s4.9-.9,6.4-2.6c1.5-1.7,2.3-4.1,2.3-7.1v-41.1h11.9v38.1c0,8.2-1.6,14.2-4.9,17.9s-8.5,5.6-15.7,5.6-12.4-1.9-15.7-5.6-4.9-9.7-4.9-17.9Z"/>
        <path class="st2" d="M247.3,223.6c-1.9,1-3.9,1.7-5.9,2.2-2.1.5-4.3.7-6.6.7-8.1,0-14.4-2.7-18.7-8.1-4.3-5.4-6.4-13.1-6.4-23.3s2.1-17.9,6.4-23.3c4.3-5.4,10.5-8.1,18.7-8.1s4.5.2,6.6.7,4.1,1.2,5.9,2.2v13.3c-2-1.9-4-3.3-6-4.1-1.9-.9-3.9-1.3-6-1.3-4.4,0-7.7,1.7-9.9,5.2-2.2,3.5-3.3,8.6-3.3,15.4s1.1,11.9,3.3,15.4c2.2,3.5,5.5,5.2,9.9,5.2s4-.4,6-1.3c1.9-.9,3.9-2.3,6-4.1v13.3Z"/>
        <path class="st2" d="M274,198.8c-6-2.3-10.1-4.7-12.2-7.2-2.1-2.5-3.2-5.9-3.2-10.2s1.8-9.8,5.3-12.9c3.5-3.1,8.3-4.7,14.4-4.7s5.6.3,8.3,1c2.8.6,5.5,1.6,8.3,2.8v11.7c-2.6-1.8-5.2-3.2-7.8-4.1-2.6-.9-5.3-1.4-7.8-1.4s-5.1.6-6.6,1.7c-1.5,1.2-2.3,2.8-2.3,5s.6,3.1,1.7,4.1,3.5,2.3,7,3.6l5.1,1.9c4.9,1.8,8.4,4.1,10.7,7.1,2.3,2.9,3.4,6.6,3.4,11.1s-1.8,10.6-5.4,13.7-9,4.5-16.3,4.5-6-.4-9-1.1-5.9-1.8-8.7-3.2v-12.3c3.2,2.3,6.3,4,9.2,5.1,3,1.1,5.9,1.7,8.8,1.7s5.2-.7,6.8-2c1.6-1.3,2.4-3.2,2.4-5.6s-.5-3.4-1.6-4.8c-1.1-1.4-2.6-2.4-4.7-3.2l-5.9-2.2Z"/>
        <path class="st2" d="M347,223.6c-1.9,1-3.9,1.7-5.9,2.2-2.1.5-4.3.7-6.6.7-8.1,0-14.4-2.7-18.7-8.1-4.3-5.4-6.4-13.1-6.4-23.3s2.1-17.9,6.4-23.3c4.3-5.4,10.5-8.1,18.7-8.1s4.5.2,6.6.7,4.1,1.2,5.9,2.2v13.3c-2-1.9-4-3.3-6-4.1-1.9-.9-3.9-1.3-6-1.3-4.4,0-7.7,1.7-9.9,5.2-2.2,3.5-3.3,8.6-3.3,15.4s1.1,11.9,3.3,15.4c2.2,3.5,5.5,5.2,9.9,5.2s4-.4,6-1.3c1.9-.9,3.9-2.3,6-4.1v13.3Z"/>
        <path class="st3" d="M351.7,175.8h3.9c2.5,3.8,4.3,7.6,5.5,11.3,1.2,3.7,1.8,7.3,1.8,11s-.6,7.3-1.8,11-3,7.4-5.5,11.3h-3.9c2.2-3.8,3.8-7.5,4.9-11.2,1.1-3.7,1.6-7.4,1.6-11.1s-.5-7.4-1.6-11.1c-1.1-3.7-2.7-7.4-4.9-11.1Z"/>
        <path class="st3" d="M367.6,198.1h12.7v4h-12.7v-4Z"/>
        <path class="st3" d="M391.8,175.8h10.4v3.5h-5.9v37.6h5.9v3.5h-10.4v-44.6Z"/>
        <path class="st0" d="M430.1,194.7v4.3c-1.2,1-2.4,1.7-3.6,2.1-1.2.4-2.4.7-3.7.7s-3.1-.4-5-1.2c-.4-.2-.6-.3-.8-.3-1.3-.5-2.3-.9-3.1-1.1s-1.7-.3-2.5-.3c-1.3,0-2.5.2-3.7.7-1.1.5-2.3,1.2-3.5,2.3v-4.3c1.3-1,2.5-1.7,3.7-2.1,1.2-.4,2.5-.7,3.8-.7s1.7,0,2.5.3c.8.2,1.8.5,3,1,.2,0,.5.2.8.4,1.9.9,3.6,1.3,5.1,1.3s2.3-.2,3.4-.7c1.1-.5,2.3-1.2,3.5-2.3Z"/>
        <path class="st3" d="M442.5,175.8v44.6h-10.4v-3.5h5.9v-37.6h-5.9v-3.5h10.4Z"/>
      </g>
      <path class="st1" d="M80.6,270.7h-3v-6.5c-1.3,0-2.6-.2-3.9-.6-1.4-.3-2.8-.8-4.3-1.4v-5.6c1.5.9,2.9,1.6,4.3,2,1.4.5,2.7.7,3.9.7v-7.1c-2.8-.6-4.9-1.5-6.3-2.9-1.4-1.4-2.1-3.2-2.1-5.4s.7-4.3,2.2-5.7c1.5-1.4,3.5-2.2,6.2-2.4v-5.1h3v5.1c1,0,2.1.2,3.2.4,1.1.2,2.2.5,3.4.8v5.5c-.9-.6-1.9-1-3-1.4-1.1-.3-2.3-.6-3.6-.6v6.6c2.8.4,5,1.4,6.4,2.9,1.4,1.5,2.2,3.5,2.2,5.9s-.8,4.3-2.3,5.8-3.6,2.3-6.2,2.5v6.5ZM77.6,246.6v-6.1c-.9.1-1.6.4-2,.9-.5.5-.7,1.1-.7,2s.2,1.5.7,2c.5.5,1.1.9,2,1.2ZM80.6,252.8v6.5c.9-.1,1.6-.5,2.1-1,.5-.6.8-1.3.8-2.2s-.2-1.6-.7-2.2c-.5-.6-1.2-.9-2.1-1.1Z"/>
      <polygon class="st3" points="59.8 253.9 16.9 253.9 16.9 194.6 87.8 194.6 87.8 198.5 20.8 198.5 20.8 250 59.8 250 59.8 253.9"/>
    </g>
    <g>
      <g>
        <path class="st0" d="M97.5,244.4h4.6c1.8,0,3.1.4,4,1.2s1.4,2,1.4,3.5-.5,2.7-1.4,3.5c-.9.8-2.3,1.2-4,1.2h-2.5v6.4h-2.1v-15.8ZM99.6,246.2v6h2.5c1,0,1.8-.3,2.3-.8.6-.5.8-1.3.8-2.2s-.3-1.7-.8-2.2-1.3-.8-2.3-.8h-2.5Z"/>
        <path class="st0" d="M110,254.2v-9.8h2.2v10.7c0,.8,0,1.3,0,1.7,0,.3.1.6.2.8.2.4.6.7,1,.9.4.2.9.3,1.6.3s1.1-.1,1.6-.3c.4-.2.8-.5,1-.9.1-.2.2-.4.2-.8,0-.3,0-.9,0-1.6v-10.8h2.1v9.8c0,1.6-.1,2.8-.3,3.5-.2.7-.5,1.2-1,1.7-.5.4-1,.7-1.6.9s-1.3.3-2,.3-1.4-.1-2-.3-1.1-.5-1.6-.9c-.5-.4-.8-1-1-1.7-.2-.7-.3-1.8-.3-3.4Z"/>
        <path class="st0" d="M146,259.7c-.5.3-1.1.5-1.7.7-.6.1-1.2.2-1.8.2-2,0-3.6-.7-4.7-2.2s-1.7-3.5-1.7-6.1.6-4.6,1.7-6.1,2.7-2.2,4.7-2.2,1.3,0,1.8.2c.6.1,1.1.4,1.7.7v2.2c-.5-.4-1.1-.8-1.7-1s-1.2-.3-1.8-.3c-1.4,0-2.4.5-3.1,1.6-.7,1.1-1,2.7-1,4.9s.3,3.8,1,4.9,1.7,1.6,3.1,1.6,1.2-.1,1.8-.3c.6-.2,1.2-.6,1.7-1v2.2Z"/>
        <path class="st0" d="M156.8,256.4c-.3.8-.7,1.9-1.2,3.3-.7,1.9-1.2,3-1.4,3.4-.3.6-.7,1-1.2,1.2-.5.3-1.1.4-1.7.4h-1.6v-1.6h1.2c.6,0,1-.2,1.3-.5s.7-1.2,1.2-2.6l-4.6-11.7h2.1l3.5,9.3,3.5-9.3h2.1l-3.1,8.1Z"/>
        <path class="st0" d="M164.8,249.9c.3-.6.7-1,1.3-1.3.5-.3,1.2-.5,1.9-.5,1.4,0,2.6.6,3.4,1.7.8,1.1,1.2,2.6,1.2,4.5s-.4,3.5-1.2,4.6c-.8,1.1-2,1.7-3.4,1.7s-1.3-.2-1.9-.5c-.5-.3-1-.8-1.3-1.3v1.5h-2v-16.5h2v6.1ZM170.5,254.3c0-1.5-.2-2.7-.7-3.4s-1.2-1.2-2.1-1.2-1.7.4-2.2,1.2c-.5.8-.7,1.9-.7,3.4s.2,2.6.7,3.4c.5.8,1.2,1.2,2.2,1.2s1.7-.4,2.1-1.2.7-1.9.7-3.4Z"/>
        <path class="st0" d="M185.7,253.8v1h-8.5c0,1.4.3,2.4,1,3.1.7.7,1.6,1.1,2.9,1.1s1.3,0,2-.3c.7-.2,1.4-.5,2.2-.9v1.9c-.7.3-1.5.5-2.1.7-.7.2-1.4.2-2,.2-1.8,0-3.3-.6-4.3-1.7-1-1.1-1.6-2.6-1.6-4.6s.5-3.4,1.5-4.5c1-1.1,2.4-1.7,4.1-1.7s2.7.5,3.6,1.5,1.3,2.4,1.3,4.2ZM183.7,253.3c0-1.1-.3-2-.8-2.6-.5-.6-1.3-.9-2.2-.9s-1.7.3-2.3.9-1,1.5-1.1,2.6h6.4Z"/>
        <path class="st0" d="M199.2,250.8c-.4-.3-.8-.6-1.3-.7s-.9-.2-1.4-.2c-1.2,0-2.1.4-2.8,1.1-.6.8-1,1.9-1,3.3v5.9h-2v-11.9h2v2.3c.3-.8.8-1.5,1.5-1.9.7-.5,1.5-.7,2.4-.7s.9,0,1.3.2c.4.1.8.3,1.2.6v2Z"/>
        <path class="st0" d="M223.9,245v2.2c-.7-.4-1.3-.7-2-.9-.7-.2-1.3-.3-2-.3-1,0-1.8.2-2.4.7s-.9,1.1-.9,1.9.2,1.2.6,1.6c.4.4,1.1.7,2.2.9l1.1.3c1.5.3,2.6.9,3.2,1.6s1,1.8,1,3-.5,2.7-1.4,3.4c-.9.8-2.3,1.2-4.1,1.2s-1.5,0-2.2-.2c-.8-.2-1.5-.4-2.3-.7v-2.3c.8.5,1.6.9,2.3,1.1s1.5.4,2.2.4c1.1,0,1.9-.2,2.5-.7s.9-1.2.9-2-.2-1.4-.6-1.8-1.1-.7-2.2-1l-1.1-.3c-1.5-.3-2.5-.8-3.2-1.5s-1-1.6-1-2.7.5-2.5,1.4-3.4c1-.9,2.2-1.3,3.8-1.3s1.2,0,1.9.2,1.4.3,2.1.6Z"/>
        <path class="st0" d="M238,253.8v1h-8.5c0,1.4.3,2.4,1,3.1.7.7,1.6,1.1,2.9,1.1s1.3,0,2-.3c.7-.2,1.4-.5,2.2-.9v1.9c-.7.3-1.5.5-2.1.7-.7.2-1.4.2-2,.2-1.8,0-3.3-.6-4.3-1.7-1-1.1-1.6-2.6-1.6-4.6s.5-3.4,1.5-4.5c1-1.1,2.4-1.7,4.1-1.7s2.7.5,3.6,1.5,1.3,2.4,1.3,4.2ZM236.1,253.3c0-1.1-.3-2-.8-2.6-.5-.6-1.3-.9-2.2-.9s-1.7.3-2.3.9-1,1.5-1.1,2.6h6.4Z"/>
        <path class="st0" d="M250.6,259.7c-.5.3-1.1.5-1.6.7-.6.2-1.1.2-1.7.2-1.8,0-3.3-.6-4.3-1.7-1-1.1-1.6-2.6-1.6-4.6s.5-3.5,1.6-4.6,2.5-1.7,4.3-1.7,1.1,0,1.7.2c.5.1,1.1.4,1.6.7v2c-.5-.5-1-.8-1.6-1-.5-.2-1.1-.3-1.8-.3-1.2,0-2.2.4-2.8,1.2-.7.8-1,1.9-1,3.4s.3,2.6,1,3.4,1.6,1.2,2.8,1.2,1.3-.1,1.8-.3c.5-.2,1-.5,1.5-1v2Z"/>
        <path class="st0" d="M254.5,255.8v-7.4h2v7.4c0,1.1.2,1.9.6,2.4s1,.8,1.8.8,1.6-.3,2.1-1c.5-.6.7-1.6.7-2.8v-6.7h2v11.9h-2v-1.8c-.3.7-.8,1.2-1.4,1.6-.6.4-1.3.5-2.1.5-1.2,0-2.1-.4-2.7-1.2s-.9-2-.9-3.6Z"/>
        <path class="st0" d="M277.8,250.8c-.4-.3-.8-.6-1.3-.7s-.9-.2-1.4-.2c-1.2,0-2.1.4-2.8,1.1-.6.8-1,1.9-1,3.3v5.9h-2v-11.9h2v2.3c.3-.8.8-1.5,1.5-1.9.7-.5,1.5-.7,2.4-.7s.9,0,1.3.2c.4.1.8.3,1.2.6v2Z"/>
        <path class="st0" d="M281.3,248.4h5v10.4h3.9v1.5h-9.7v-1.5h3.9v-8.9h-3v-1.5ZM284.4,243.7h2v2.5h-2v-2.5Z"/>
        <path class="st0" d="M298.2,245v3.4h4.4v1.5h-4.4v6.5c0,.9.2,1.5.5,1.8s.9.5,1.7.5h2.2v1.6h-2.4c-1.5,0-2.5-.3-3.1-.9s-.9-1.6-.9-3v-6.5h-3.2v-1.5h3.2v-3.4h2Z"/>
        <path class="st0" d="M313.9,256.4c-.3.8-.7,1.9-1.2,3.3-.7,1.9-1.2,3-1.4,3.4-.3.6-.7,1-1.2,1.2-.5.3-1.1.4-1.7.4h-1.6v-1.6h1.2c.6,0,1-.2,1.3-.5s.7-1.2,1.2-2.6l-4.6-11.7h2.1l3.5,9.3,3.5-9.3h2.1l-3.1,8.1Z"/>
        <path class="st0" d="M342.3,259.7c-.5.3-1.1.5-1.7.7-.6.1-1.2.2-1.8.2-2,0-3.6-.7-4.7-2.2s-1.7-3.5-1.7-6.1.6-4.6,1.7-6.1,2.7-2.2,4.7-2.2,1.3,0,1.8.2c.6.1,1.1.4,1.7.7v2.2c-.5-.4-1.1-.8-1.7-1s-1.2-.3-1.8-.3c-1.4,0-2.4.5-3.1,1.6-.7,1.1-1,2.7-1,4.9s.3,3.8,1,4.9,1.7,1.6,3.1,1.6,1.2-.1,1.8-.3c.6-.2,1.2-.6,1.7-1v2.2Z"/>
        <path class="st0" d="M350.8,256c0,.9.2,1.5.5,2,.3.4.8.7,1.4.7h2.3v1.7h-2.5c-1.2,0-2.1-.4-2.7-1.1-.6-.8-1-1.8-1-3.2v-10.8h-3.1v-1.5h5.1v12.3Z"/>
        <path class="st0" d="M359.2,255.8v-7.4h2v7.4c0,1.1.2,1.9.6,2.4s1,.8,1.8.8,1.6-.3,2.1-1c.5-.6.7-1.6.7-2.8v-6.7h2v11.9h-2v-1.8c-.3.7-.8,1.2-1.4,1.6-.6.4-1.3.5-2.1.5-1.2,0-2.1-.4-2.7-1.2s-.9-2-.9-3.6Z"/>
        <path class="st0" d="M374.2,249.9c.3-.6.7-1,1.3-1.3.5-.3,1.2-.5,1.9-.5,1.4,0,2.6.6,3.4,1.7.8,1.1,1.2,2.6,1.2,4.5s-.4,3.5-1.2,4.6c-.8,1.1-2,1.7-3.4,1.7s-1.3-.2-1.9-.5c-.5-.3-1-.8-1.3-1.3v1.5h-2v-16.5h2v6.1ZM379.9,254.3c0-1.5-.2-2.7-.7-3.4s-1.2-1.2-2.1-1.2-1.7.4-2.2,1.2c-.5.8-.7,1.9-.7,3.4s.2,2.6.7,3.4c.5.8,1.2,1.2,2.2,1.2s1.7-.4,2.1-1.2.7-1.9.7-3.4Z"/>
      </g>
      <rect class="st0" x="386.3" y="238.4" width="13.4" height="25.8"/>
    </g>
  </g>
  <g>
    <path class="st4" d="M393,306H99.2c-4.3,0-7.9-3.5-7.9-7.9s3.5-7.9,7.9-7.9h293.8c41,0,74.4-34.9,74.4-77.7s-33.4-77.7-74.4-77.7-3.2,0-5.1.2l-7.1.5-1.2-7c-5.8-35.2-34.9-60.8-69.2-60.8s-29.9,5.1-42.1,14.7l-7.3,5.7-4.4-8.2c-13.2-24.3-38-39.4-64.7-39.4s-62.1,22.9-71.4,55.7c-1.2,4.2-5.5,6.6-9.7,5.4-4.2-1.2-6.6-5.5-5.4-9.7,5.3-19,16.7-36,31.9-48.1,15.8-12.5,34.7-19.1,54.6-19.1,29.6,0,57.2,15.1,73.9,40,13.4-8.5,28.7-12.9,44.6-12.9,39.7,0,73.8,27.9,83.3,67.2,49.4.4,89.4,42.2,89.4,93.5s-40.4,93.5-90.1,93.5Z"/>
    <g>
      <circle class="st1" cx="113" cy="95.1" r="19.2"/>
      <path class="st0" d="M113,120c-13.8,0-24.9-11.2-24.9-24.9s11.2-24.9,24.9-24.9,24.9,11.2,24.9,24.9-11.2,24.9-24.9,24.9ZM113,81.7c-7.4,0-13.4,6-13.4,13.4s6,13.4,13.4,13.4,13.4-6,13.4-13.4-6-13.4-13.4-13.4Z"/>
    </g>
    <g>
      <circle class="st1" cx="98.1" cy="298.2" r="10.8"/>
      <path class="st0" d="M98.1,312.2c-7.8,0-14.1-6.3-14.1-14.1s6.3-14.1,14.1-14.1,14.1,6.3,14.1,14.1-6.3,14.1-14.1,14.1ZM98.1,290.6c-4.2,0-7.5,3.4-7.5,7.5s3.4,7.5,7.5,7.5,7.5-3.4,7.5-7.5-3.4-7.5-7.5-7.5Z"/>
    </g>
  </g>
</svg>