<?xml version="1.0" encoding="UTF-8"?>
<svg id="Layer_1" xmlns="http://www.w3.org/2000/svg" version="1.1" xmlns:xlink="http://www.w3.org/1999/xlink" viewBox="0 0 768 786.3">
  <!-- Generator: Adobe Illustrator 29.8.2, SVG Export Plug-In . SVG Version: 2.1.1 Build 3)  -->
  <defs>
    <style>
      .st0 {
        fill: url(#linear-gradient2);
      }

      .st1 {
        fill: #00baff;
      }

      .st2 {
        fill: #fff;
      }

      .st3 {
        fill: url(#linear-gradient1);
      }

      .st4 {
        stroke: #fff;
        stroke-width: 2px;
      }

      .st4, .st5, .st6 {
        fill: none;
        stroke-miterlimit: 10;
      }

      .st5 {
        stroke: #b6eeff;
        stroke-width: 4.7px;
      }

      .st6 {
        stroke: url(#linear-gradient);
        stroke-width: 15.7px;
      }

      .st7 {
        fill: url(#linear-gradient3);
      }
    </style>
    <linearGradient id="linear-gradient" x1="158.3" y1="262.6" x2="609.1" y2="522.8" gradientUnits="userSpaceOnUse">
      <stop offset="0" stop-color="#0080ff"/>
      <stop offset=".5" stop-color="#00f4ff"/>
      <stop offset=".9" stop-color="#00a0ff"/>
      <stop offset="1" stop-color="#0080ff"/>
    </linearGradient>
    <linearGradient id="linear-gradient1" x1="189.8" y1="190" x2="189.8" y2="359.9" gradientUnits="userSpaceOnUse">
      <stop offset="0" stop-color="#00f4ff"/>
      <stop offset=".7" stop-color="#00a0ff"/>
      <stop offset="1" stop-color="#0080ff"/>
    </linearGradient>
    <linearGradient id="linear-gradient2" x1="577.6" x2="577.6" xlink:href="#linear-gradient1"/>
    <linearGradient id="linear-gradient3" x1="383.6" y1="172.5" x2="383.6" y2="362.6" xlink:href="#linear-gradient1"/>
  </defs>
  <rect class="st6" x="200" y="71.7" width="367.4" height="641.9" rx="183.7" ry="183.7"/>
  <g>
    <g>
      <path class="st2" d="M339,351.2c-.2.3-.6.5-1,.4-3.7-1-8.8,2.7-10,5.8-.1.3-.5.6-.8.6-.5,0-.8-.4-.9-.8-.6-7.5-7.1-10.9-13.6-13.9-8.6-4.1-10.8-6.5-11.3-12.6-7.1-13.9-27.2-23.7-34.1-26.8-3.6-1.6-7.5-3.1-11.3-4.2-4-1.2-8.1-1.8-12-2.9-2-.5-4.1-1.2-6-2s-3.8-2-5.7-3c-4.1-2.1-7.8-4.8-11.7-7.2-.5-.3-1.1-.6-1.6-.9s-1.4-.6-1.5-.8c-1-3.1-3.1-9.2-3.5-12.3-10.3-3.3-21.6-5-33-5.8-12.8-.8-25.8-.5-38.7.7-12.9,1.2-25.9,3.1-38.6,5.9-12.7,2.9-25.3,6.5-37.1,12.2l-.8-1.4c11.5-6.7,24-11.4,36.7-15.4,12.7-3.9,25.7-6.9,38.8-9.2,13.1-2.3,26.5-3.7,40-3.9,6.8,0,13.7,0,20.6.8-8.7-2.5-17.7-4.5-26.7-6.3-14.6-2.9-29.4-5.1-44.2-6.7-14.9-1.7-29.8-2.8-44.8-3.3-15-.4-30-.3-44.9,1.2l-.3-2.1c15-2.5,30-3.7,45.2-4.3,15.1-.6,30.3-.4,45.4.2,15.2.7,30.3,1.9,45.4,3.8,8.3,1.1,16.7,2.4,25.1,4.1-1.5-.6-2.9-1.3-4.4-1.9-6.8-2.8-13.7-5.5-20.7-8.1-14-5.2-28.1-10-42.3-14.5-14.2-4.5-28.5-8.7-42.9-12.5-14.4-3.8-29-7.2-43.7-9.5l.3-2.3c15,1.5,29.7,4.2,44.4,7.2,14.7,3,29.3,6.5,43.8,10.3,14.5,3.8,29,7.9,43.3,12.5,7.2,2.2,14.3,4.6,21.5,7.1,7.3,2.7,17.4,6.6,17.4,6.6-6.2,25.4,15.2,45.4,26,49.5,10.8,4.1,32.5,12.6,34.9,14.3l-.9-4,10.8,8.7-.7-5.9,11.2,12.6-.4-5.8,13.6,16.9c-3.8-8.8-9-17-15.6-24-4.7-5-9.9-9.6-15.6-13.5-5.7-3.9-11.7-7.5-18.2-9.7l.5-1.7c6.9,2,13.3,5.2,19.4,8.9,6,3.7,11.7,8.1,16.9,13.1,9.5,9,18.7,22.9,23.7,35.9.2.6.5,1.3.8,1.9.4.9.9,1.9,1.4,2.9,2,3.6,4.3,6.4,6.4,8.5l5.9,5.8c.3.3.4.7.1,1.1Z"/>
      <path class="st3" d="M48.2,192.2c15,1.5,29.7,4.2,44.4,7.2,14.7,3,29.3,6.5,43.8,10.3,14.5,3.8,29,7.9,43.3,12.5,7.2,2.2,14.3,4.6,21.5,7.1,7.3,2.7,17.4,6.6,17.4,6.6-6.2,25.4,15.2,45.4,26,49.5,10.8,4.1,32.5,12.6,34.9,14.3l-.9-4,10.8,8.7-.7-5.9,11.2,12.6-.4-5.8,13.6,16.9c-3.8-8.8-9-17-15.6-24-4.7-5-9.9-9.6-15.6-13.5-5.7-3.9-11.7-7.5-18.2-9.7l.5-1.7c6.9,2,13.3,5.2,19.4,8.9,6,3.7,11.7,8.1,16.9,13.1,9.5,9,18.7,22.9,23.7,35.9.2.6.5,1.3.8,1.9.4.9.9,1.9,1.4,2.9,2,3.6,4.3,6.4,6.4,8.5l5.9,5.8c.3.3.4.7.1,1.1-.1.3-.4.4-.7.4s-.2,0-.3,0c-.4-.1-.9-.2-1.3-.2-3.5,0-7.6,3.2-8.7,5.9-.1.3-.5.6-.8.6-.5,0-.8-.4-.9-.8-.6-7.5-7.1-10.9-13.6-13.9-8.6-4.1-10.8-6.5-11.3-12.6-7.1-13.9-27.2-23.7-34.1-26.8-3.6-1.6-7.5-3.1-11.3-4.2-4-1.2-8.1-1.8-12-2.9-2-.5-4.1-1.2-6-2-2-.8-3.8-2-5.7-3-4.1-2.1-7.8-4.8-11.7-7.2-.5-.3-1.1-.6-1.6-.9-.2-.1-1.4-.6-1.5-.8-1-3.1-3.1-9.2-3.5-12.3-10.3-3.3-21.6-5-33-5.8-4.8-.3-9.6-.5-14.4-.5-8.1,0-16.2.4-24.4,1.1-12.9,1.2-25.9,3.1-38.6,5.9-12.7,2.9-25.3,6.5-37.1,12.2l-.8-1.4c11.5-6.7,24-11.4,36.7-15.4,12.7-3.9,25.7-6.9,38.8-9.2,13.1-2.3,26.5-3.7,40-3.9,1.1,0,2.2,0,3.3,0,5.8,0,11.6.2,17.4.8-8.7-2.5-17.7-4.5-26.7-6.3-14.6-2.9-29.4-5.1-44.2-6.7-14.9-1.7-29.8-2.8-44.8-3.3-4.6-.1-9.2-.2-13.8-.2-10.4,0-20.8.4-31.1,1.4l-.3-2.1c15-2.5,30-3.7,45.2-4.3,6.4-.2,12.8-.4,19.2-.4s17.4.2,26.1.6c15.2.7,30.3,1.9,45.4,3.8,8.3,1.1,16.7,2.4,25.1,4.1-1.5-.6-2.9-1.3-4.4-1.9-6.8-2.8-13.7-5.5-20.7-8.1-14-5.2-28.1-10-42.3-14.5-14.2-4.5-28.5-8.7-42.9-12.5-14.4-3.8-29-7.2-43.7-9.5l.3-2.3M46.5,190l-.2,1.9-.3,2.3-.2,1.9,1.9.3c15.9,2.4,31.6,6.3,43.5,9.4,13.9,3.6,27.9,7.7,42.8,12.5,15,4.8,28.8,9.5,42.2,14.5,2.9,1.1,5.7,2.2,8.4,3.2-2.4-.4-4.9-.7-7.5-1-14.2-1.8-29.1-3.1-45.6-3.8-9-.4-17.8-.6-26.2-.6s-13,.1-19.3.4c-17.7.7-32.2,2.1-45.4,4.4l-1.9.3.3,1.9.3,2.1.3,1.9,1.9-.2c9.5-1,19.6-1.4,30.9-1.4,4.4,0,8.9,0,13.8.2,14.3.4,29.3,1.5,44.6,3.2,15.1,1.7,30,3.9,44.1,6.7,2.7.5,5.2,1.1,7.7,1.6-.4,0-.9,0-1.3,0-12.8.2-25.9,1.5-40.3,3.9-13.6,2.3-26.7,5.5-39.1,9.3-15.5,4.9-26.9,9.7-37.1,15.6l-1.7,1,1,1.7.8,1.4.9,1.6,1.7-.8c10.1-4.8,21.4-8.6,36.7-12,12.2-2.7,25.1-4.7,38.3-5.9,8.6-.8,16.5-1.1,24.2-1.1,4.9,0,9.7.2,14.2.5,12.1.8,22.4,2.6,31.4,5.4.6,2.9,2,7.3,3,10.2l.4,1.1c.3,1,1.2,1.4,2.1,1.8,0,0,.2,0,.2.1.5.3,1,.6,1.5.9,1.4.9,2.9,1.8,4.3,2.7,2.4,1.6,4.9,3.2,7.6,4.5.6.3,1.2.7,1.8,1,1.3.7,2.6,1.5,4.1,2.1,1.9.8,3.9,1.4,6.2,2.1,1.9.5,3.7.9,5.6,1.3,2.1.5,4.3.9,6.4,1.6,3.6,1.1,7.3,2.4,11.1,4.1,9.6,4.3,26.6,13.4,33,25.6.7,7,3.9,9.8,12.4,13.8,7,3.3,12,6.2,12.5,12.3h0s0,0,0,0c.1,1.3,1.1,2.3,2.5,2.6h.2s.2,0,.2,0c1.2,0,2.2-.7,2.7-1.8.8-2.1,4.3-4.7,6.9-4.7.3,0,.5,0,.8,0,.3,0,.5.1.8.1,1,0,1.9-.5,2.4-1.4.7-1.1.5-2.5-.4-3.5l-5.9-5.9c-2.4-2.4-4.4-5.1-6.1-8.1-.5-1-1-1.9-1.3-2.7-.1-.3-.2-.6-.4-.9-.1-.3-.2-.6-.4-.9-5-13.2-14.3-27.2-24.2-36.6-5.2-5-11-9.5-17.3-13.3-7.4-4.5-13.7-7.4-19.9-9.1l-1.9-.5-.6,1.9-.5,1.7-.5,1.8,1.8.6c5.5,1.9,11.2,4.9,17.7,9.5,5.6,3.9,10.7,8.4,15.2,13.3.4.4.8.8,1.2,1.3l.3,4.6h0c0,.1-7.4-8.2-7.4-8.2l-4.2-4.7.7,6.2v1.1c.1,0-7-5.7-7-5.7l-4.4-3.5,1.2,5.5h0c-7.8-3.4-24.3-9.9-31.4-12.6-9.8-3.7-30.8-22.6-24.8-47.2l.4-1.7-1.6-.6c-.1,0-10.2-4-17.4-6.6-7.1-2.5-14.2-4.9-21.6-7.2-13.6-4.3-27.8-8.4-43.4-12.5-16-4.2-30.4-7.5-43.9-10.3-13-2.7-28.5-5.6-44.6-7.2l-1.9-.2h0Z"/>
    </g>
    <g>
      <path class="st2" d="M428.5,351.2c.2.3.6.5,1,.4,3.7-1,8.8,2.7,10,5.8.1.3.5.6.8.6.5,0,.8-.4.9-.8.6-7.5,7.1-10.9,13.6-13.9,8.6-4.1,10.8-6.5,11.3-12.6,7.1-13.9,27.2-23.7,34.1-26.8,3.6-1.6,7.5-3.1,11.3-4.2,4-1.2,8.1-1.8,12-2.9,2-.5,4.1-1.2,6-2s3.8-2,5.7-3c4.1-2.1,7.8-4.8,11.7-7.2.5-.3,1.1-.6,1.6-.9s1.4-.6,1.5-.8c1-3.1,3.1-9.2,3.5-12.3,10.3-3.3,21.6-5,33-5.8,12.8-.8,25.8-.5,38.7.7,12.9,1.2,25.9,3.1,38.6,5.9,12.7,2.9,25.3,6.5,37.1,12.2l.8-1.4c-11.5-6.7-24-11.4-36.7-15.4-12.7-3.9-25.7-6.9-38.8-9.2-13.1-2.3-26.5-3.7-40-3.9-6.8,0-13.7,0-20.6.8,8.7-2.5,17.7-4.5,26.7-6.3,14.6-2.9,29.4-5.1,44.2-6.7,14.9-1.7,29.8-2.8,44.8-3.3,15-.4,30-.3,44.9,1.2l.3-2.1c-15-2.5-30-3.7-45.2-4.3-15.1-.6-30.3-.4-45.4.2-15.2.7-30.3,1.9-45.4,3.8-8.3,1.1-16.7,2.4-25.1,4.1,1.5-.6,2.9-1.3,4.4-1.9,6.8-2.8,13.7-5.5,20.7-8.1,14-5.2,28.1-10,42.3-14.5,14.2-4.5,28.5-8.7,42.9-12.5,14.4-3.8,29-7.2,43.7-9.5l-.3-2.3c-15,1.5-29.7,4.2-44.4,7.2-14.7,3-29.3,6.5-43.8,10.3-14.5,3.8-29,7.9-43.3,12.5-7.2,2.2-14.3,4.6-21.5,7.1-7.3,2.7-17.4,6.6-17.4,6.6,6.2,25.4-15.2,45.4-26,49.5-10.8,4.1-32.5,12.6-34.9,14.3l.9-4-10.8,8.7.7-5.9-11.2,12.6.4-5.8-13.6,16.9c3.8-8.8,9-17,15.6-24,4.7-5,9.9-9.6,15.6-13.5,5.7-3.9,11.7-7.5,18.2-9.7l-.5-1.7c-6.9,2-13.3,5.2-19.4,8.9-6,3.7-11.7,8.1-16.9,13.1-9.5,9-18.7,22.9-23.7,35.9-.2.6-.5,1.3-.8,1.9-.4.9-.9,1.9-1.4,2.9-2,3.6-4.3,6.4-6.4,8.5l-5.9,5.8c-.3.3-.4.7-.1,1.1Z"/>
      <path class="st0" d="M719.2,192.2l.3,2.3c-14.7,2.3-29.2,5.7-43.7,9.5-14.4,3.8-28.7,8-42.9,12.5-14.2,4.5-28.3,9.3-42.3,14.5-6.9,2.6-13.9,5.3-20.7,8.1-1.5.6-2.9,1.3-4.4,1.9,8.3-1.7,16.7-3,25.1-4.1,15.1-1.9,30.2-3.1,45.4-3.8,8.7-.4,17.4-.6,26.1-.6s12.8.1,19.2.4c15.1.6,30.2,1.8,45.2,4.3l-.3,2.1c-10.3-1-20.7-1.4-31.1-1.4s-9.2,0-13.8.2c-15,.4-29.9,1.6-44.8,3.3-14.9,1.7-29.6,3.9-44.2,6.7-9,1.8-17.9,3.8-26.7,6.3,5.8-.6,11.6-.8,17.4-.8s2.2,0,3.3,0c13.5.2,26.8,1.7,40,3.9,13.2,2.3,26.1,5.3,38.8,9.2,12.6,4,25.1,8.7,36.7,15.4l-.8,1.4c-11.7-5.7-24.4-9.3-37.1-12.2-12.7-2.8-25.7-4.8-38.6-5.9-8.1-.7-16.3-1.1-24.4-1.1s-9.6.1-14.4.5c-11.4.8-22.7,2.5-33,5.8-.5,3-2.5,9.2-3.5,12.3,0,.2-1.2.7-1.5.8-.5.3-1.1.6-1.6.9-3.9,2.4-7.7,5.1-11.7,7.2-1.9,1-3.7,2.1-5.7,3-2,.8-4,1.4-6,2-4,1.1-8.1,1.7-12,2.9-3.9,1.1-7.7,2.6-11.3,4.2-6.9,3.1-27,12.9-34.1,26.8-.5,6.1-2.7,8.5-11.3,12.6-6.5,3.1-13,6.4-13.6,13.9,0,.4-.4.8-.9.8-.4,0-.7-.2-.8-.6-1.1-2.7-5.2-5.9-8.7-5.9s-.9,0-1.3.2c0,0-.2,0-.3,0-.3,0-.6-.2-.7-.4-.2-.4-.1-.8.1-1.1l5.9-5.8c2.1-2.1,4.4-5,6.4-8.5.5-1,1-1.9,1.4-2.9.2-.6.5-1.3.8-1.9,5-13,14.2-26.8,23.7-35.9,5.2-5,10.9-9.3,16.9-13.1,6.1-3.7,12.5-6.9,19.4-8.9l.5,1.7c-6.5,2.3-12.5,5.8-18.2,9.7-5.7,4-10.9,8.5-15.6,13.5-6.7,7-11.8,15.2-15.6,24l13.6-16.9-.4,5.8,11.2-12.6-.7,5.9,10.8-8.7-.9,4c2.4-1.7,24.1-10.2,34.9-14.3,10.8-4.1,32.2-24.1,26-49.5,0,0,10.1-3.9,17.4-6.6,7.1-2.5,14.2-4.9,21.5-7.1,14.3-4.5,28.8-8.6,43.3-12.5,14.5-3.8,29.1-7.3,43.8-10.3,14.7-3,29.5-5.7,44.4-7.2M720.9,190l-1.9.2c-16.1,1.6-31.6,4.6-44.6,7.2-13.6,2.8-27.9,6.2-43.9,10.3-15.6,4.1-29.8,8.2-43.4,12.5-7.4,2.3-14.4,4.6-21.5,7.1-7.2,2.7-17.3,6.6-17.4,6.6l-1.6.6.4,1.7c6,24.6-15,43.5-24.8,47.2-7.1,2.7-23.6,9.1-31.4,12.6h0s1.2-5.5,1.2-5.5l-4.4,3.5-7.1,5.7v-1.1c.1,0,.9-6.2.9-6.2l-4.2,4.7-7.4,8.3h0c0-.1.3-4.7.3-4.7.4-.4.8-.8,1.1-1.2,4.5-4.9,9.7-9.4,15.3-13.3,6.6-4.5,12.2-7.5,17.7-9.5l1.8-.6-.5-1.8-.5-1.7-.6-1.9-1.9.5c-6.2,1.8-12.5,4.7-19.9,9.1-6.2,3.8-12,8.3-17.3,13.3-9.9,9.4-19.1,23.4-24.2,36.6-.1.3-.2.6-.4.9-.1.3-.3.6-.4.9-.4.8-.8,1.7-1.3,2.7-1.6,2.9-3.7,5.7-6.1,8.1l-5.9,5.8c-.9.9-1.1,2.4-.4,3.5.5.9,1.4,1.4,2.4,1.4s.6,0,.8-.1c.2,0,.5,0,.8,0,2.6,0,6,2.6,6.9,4.7.5,1.1,1.5,1.8,2.7,1.8h.4c1.4-.3,2.4-1.3,2.5-2.6h0s0,0,0,0c.5-6.1,5.5-9,12.5-12.3,8.5-4,11.7-6.8,12.4-13.8,6.4-12.2,23.4-21.2,33-25.6,3.8-1.7,7.5-3.1,11.1-4.1,2.1-.6,4.3-1.1,6.4-1.6,1.8-.4,3.7-.8,5.6-1.3,2.3-.6,4.4-1.3,6.2-2.1,1.5-.6,2.8-1.3,4.1-2.1.6-.3,1.2-.7,1.8-1,2.6-1.4,5.1-3,7.6-4.5,1.4-.9,2.9-1.8,4.3-2.7.5-.3,1.1-.6,1.6-.9,0,0,.1,0,.2,0,.9-.4,1.8-.8,2.1-1.8l.4-1.1c1-3,2.4-7.3,3-10.2,9-2.8,19.3-4.6,31.4-5.4,4.6-.3,9.4-.5,14.2-.5,7.7,0,15.6.4,24.2,1.1,13.2,1.2,26.1,3.2,38.3,5.9,15.3,3.5,26.6,7.2,36.7,12l1.7.8.9-1.6.8-1.4,1-1.7-1.7-1c-10.1-5.9-21.6-10.7-37.1-15.6-12.3-3.8-25.5-6.9-39.1-9.3-14.3-2.5-27.5-3.8-40.3-3.9-.4,0-.9,0-1.3,0,2.5-.5,5.1-1.1,7.7-1.6,14.1-2.8,28.9-5,44.1-6.7,15.3-1.7,30.3-2.8,44.6-3.2,4.9-.1,9.4-.2,13.8-.2,11.3,0,21.4.5,30.9,1.4l1.9.2.3-1.9.3-2.1.3-1.9-1.9-.3c-13.3-2.3-27.7-3.6-45.4-4.4-6.3-.2-12.8-.4-19.3-.4-8.4,0-17.3.2-26.2.6-16.5.8-31.4,2-45.6,3.8-2.6.3-5,.7-7.5,1,2.7-1,5.4-2.1,8.4-3.2,13.4-5,27.2-9.7,42.2-14.5,14.9-4.8,28.9-8.8,42.8-12.5,11.9-3.1,27.6-7,43.5-9.4l1.9-.3-.2-1.9-.3-2.3-.2-1.9h0Z"/>
    </g>
  </g>
  <g>
    <path d="M406.4,172.5v152.3c0,11.4.5,18.8,1.5,21.9,1,3.2,3.1,5.7,6.3,7.8,3.2,2,8.3,3,15.4,3h4.3v5.1h-98.1v-5.1h4.9c8,0,13.6-.9,17-2.7,3.4-1.8,5.7-4.3,6.9-7.6,1.2-3.2,1.8-10.7,1.8-22.4v-96.6c0-8.6-.4-14-1.2-16.1-.8-2.2-2.4-4-4.6-5.5-2.2-1.5-4.8-2.3-7.8-2.3-4.7,0-10.4,1.5-17,4.4l-2.5-4.9,68.5-31.3h4.5Z"/>
    <path class="st7" d="M406.4,172.5v152.3c0,11.4.5,18.8,1.5,21.9,1,3.2,3.1,5.7,6.3,7.8,3.2,2,8.3,3,15.4,3h4.3v5.1h-98.1v-5.1h4.9c8,0,13.6-.9,17-2.7,3.4-1.8,5.7-4.3,6.9-7.6,1.2-3.2,1.8-10.7,1.8-22.4v-96.6c0-8.6-.4-14-1.2-16.1-.8-2.2-2.4-4-4.6-5.5-2.2-1.5-4.8-2.3-7.8-2.3-4.7,0-10.4,1.5-17,4.4l-2.5-4.9,68.5-31.3h4.5Z"/>
    <path class="st5" d="M406.4,172.5v152.3c0,11.4.5,18.8,1.5,21.9,1,3.2,3.1,5.7,6.3,7.8,3.2,2,8.3,3,15.4,3h4.3v5.1h-98.1v-5.1h4.9c8,0,13.6-.9,17-2.7,3.4-1.8,5.7-4.3,6.9-7.6,1.2-3.2,1.8-10.7,1.8-22.4v-96.6c0-8.6-.4-14-1.2-16.1-.8-2.2-2.4-4-4.6-5.5-2.2-1.5-4.8-2.3-7.8-2.3-4.7,0-10.4,1.5-17,4.4l-2.5-4.9,68.5-31.3h4.5Z"/>
  </g>
  <g>
    <g>
      <path class="st2" d="M309.5,247c.2,0,.3.1.3.3,0,.5-1,1.8-1.9,4.3-.8,2.1-.9,3.6-1.4,3.9l-1,.6s-.1,0-.2,0c-.2,0-.3,0-.3-.2,0-.6.5-1.6.5-2.9,0-2.1-1.7-3.3-4.8-3.3s-6.4,1.6-8.7,4.5c-3,3.9-4.7,9-4.7,13.4s2.4,7.7,6.2,7.7,3.8-.8,6-2c1.4-.8,2.1-1.6,2.8-1.6s.4.2.4.3,0,.2,0,.3l-.7,1.4c-.4.9-1.3,1.2-2.5,1.8-3.4,1.6-5.8,3.3-8.5,3.3-4.6,0-8.2-4.1-8.2-10.5s2.7-11.4,7.4-15.9c3.8-3.6,8.4-5.5,13.1-5.5s3.2.4,4,.4.9,0,1.3-.3h1c0-.1,0-.1,0-.1Z"/>
      <path class="st2" d="M316.3,259.7c4.4-3.8,7.6-5.9,9.9-5.9s3.9,1.9,3.9,4.6-.5,2.9-1.3,4.8l-2.5,5.8c-.8,1.8-1.2,3.2-1.2,4.2s.6,1.9,1.6,1.9,1.7-.7,2.3-.7.4,0,.4.3h0c0,0-.2.8-.2.8-.2.7-.9.8-1.8,1.3-1.4.8-2.3,2-3.5,2s-3.1-1.7-3.1-4.4.4-3,1.1-4.7l2.8-6.8c.7-1.7,1-2.8,1-3.6,0-1.3-.8-2.1-2.1-2.1-3,0-8,4-10.5,11.5l-2.8,8.3c-.2.8-.4,1.2-1.2,1.2h-2.5c-.5,0-.9-.2-.9-.5s0-.3.1-.5l8.6-23.8c.9-2.6,1.3-4.3,1.3-5.1s-.4-1.7-1.2-1.7-1,.2-1.6.2-.4,0-.4-.2,0,0,0-.1l.3-.6c.4-.8,1.4-.7,3.2-1.2,1.6-.5,2.6-1.2,3.4-1.2s1.5.7,1.5,2-.7,3.2-1.9,6.5l-2.8,7.8Z"/>
      <path class="st2" d="M357.3,258.2c-.2.3-.5.5-.7.5s-.3,0-.4,0c-3.2,4.7-4.8,8.9-4.8,12.9s.8,3.7,2.2,3.7,1.7-.8,2.2-.8.3.1.3.3h0v.2l-.2.7c-.2.6-.6.8-1.1,1.1-1.6,1.1-2.5,2.1-3.6,2.1-1.9,0-3.4-2.3-3.4-6.1s0-1.2.1-2c-1.9,2.3-3.6,4.6-5.1,6.9-.9.9-2,1.4-3.4,1.4-3.5,0-6-2.8-6-7.3s1.6-7.5,4.7-11c3.9-4.4,8.6-6.8,13.3-6.8s7.5,1.6,7.5,2.3-.1.3-.3.6l-1.2,1.5ZM349.5,256.1c-2.9,0-5.7,1.7-8.2,5-2.4,3.1-3.6,6.8-3.6,10s1.2,4.4,2.8,4.4c3.4,0,6.1-7,12.7-18.6-1.4-.6-2.6-.8-3.8-.8Z"/>
      <path class="st2" d="M378.6,253.9c1.9,0,3.5,1.8,3.5,4.3s0,.9-.2,1.5c4.2-3.6,7-5.8,8.9-5.8s3.5,1.8,3.5,4.4-.5,2.9-1.4,5l-2.4,5.8c-.7,1.7-1.2,3.1-1.2,4.2s.6,1.9,1.7,1.9,1.7-.7,2.3-.7.4,0,.4.3h0c0,0-.2.8-.2.8-.2.7-.9.8-1.7,1.3-1.4.9-2.3,2-3.5,2s-3.1-1.7-3.1-4.4.4-3,1.1-4.7l2.8-6.8c.7-1.6.9-2.9.9-3.6,0-1.2-.7-2-1.7-2s-2.7,1-4.7,2.9c-2.6,2.6-4,5.1-5.1,8.4l-2.7,8.3c-.2.7-.4,1.2-1.1,1.2h-2.4c-.5,0-.8-.2-.8-.5s0-.3,0-.5l5.2-14.2c.7-1.8.9-3,.9-3.6,0-1.2-.7-2-1.6-2s-2.8,1-4.8,3-4,5.3-5.1,8.4l-2.8,8.3c-.2.7-.4,1.2-1.1,1.2h-2.4c-.5,0-.8-.2-.8-.5s0-.3.1-.5l4.8-12.9c.9-2.4,1.4-4.2,1.4-5.3s-.5-1.7-1.3-1.7-.9.2-1.5.2-.5,0-.5-.2,0,0,0-.1l.3-.6c.4-.8,1.4-.7,3.4-1.4,1.5-.5,2.5-1.3,3.3-1.3s1.3.8,1.3,1.9-.4,2.3-1,3.9c4.2-3.6,6.9-5.8,8.9-5.8Z"/>
      <path class="st2" d="M400.3,281.3c-.4,1.2-.7,2.1-.7,2.8,0,1,.6,1.5,1.7,1.5s1.4,0,1.5,0c.3,0,.5,0,.5.2s0,0,0,.2l-.3.7c-.4.9-1.8.7-4.1,1.1-2.4.5-3.8,1.4-4.3,1.4s-.3,0-.3,0l-.3-.2c0,0-.1-.2-.1-.3,0-.8,1-3,2.5-7.2l6.6-18.6c.6-1.7,1-3,1-3.9s-.4-1.5-1.3-1.5-1.3.2-1.6.2-.4,0-.4-.2,0-.1,0-.2l.3-.6c.4-.8,1.4-.7,3.2-1.3,1.7-.5,2.8-1.3,3.5-1.3s1.3.7,1.3,1.7-.4,2.3-1,3.9c4.2-3.5,6.6-5.8,8.8-5.8s5,2.3,5,6.5-2,8.5-6,13c-3.3,3.7-6.8,5.5-9.1,5.5s-3.1-.6-5-1.7l-1.4,4ZM403.2,273.6c0,1.5,1.7,2.8,4.2,2.8s4.8-1.9,6.9-5.9c2.1-4,3-7.6,3-9.7s-.9-3.4-2.6-3.4c-2.7,0-6.8,3.2-9.3,9.7l-1.7,4.6c-.3.9-.5,1.5-.5,1.8Z"/>
      <path class="st2" d="M430.1,269.1c-.7,1.8-1.1,3.3-1.1,4.3s.6,1.9,1.6,1.9,1.7-.7,2.3-.7.3,0,.3.3h0c0,0-.2.8-.2.8-.2.7-.9.8-1.8,1.3-1.4.8-2.2,2-3.4,2s-3.2-1.7-3.2-4.3.4-2.9,1.1-4.8l2.1-5.5c.9-2.4,1.4-4.1,1.4-5.3s-.5-1.7-1.3-1.7-.9.2-1.5.2-.5,0-.5-.2,0,0,0-.1l.3-.6c.4-.8,1.4-.7,3.3-1.3,1.6-.5,2.7-1.4,3.7-1.4s1.3.7,1.3,1.7-.3,2-1,4.1l-3.4,9.4ZM436.8,246.9c.2.3.2.6.2.8,0,1.1-2.9,3.4-3.8,3.4s-1.9-2-1.9-3.4.4-.9,1.2-1.6c1.2-.9,1.9-1.4,2.5-1.4s.8.3,1.1,1l.6,1.1Z"/>
      <path class="st2" d="M459.3,261.5c0,3.8-2,8.6-5.8,12.5-3.3,3.4-6.8,5-9.8,5s-6.5-2.8-6.5-7.6,2-8.6,5.8-12.5c3.3-3.3,6.8-5,9.8-5s6.5,2.8,6.5,7.6ZM444.7,260.1c-2.2,2.7-3.4,6.4-3.4,10s1.6,5.8,4.4,5.8,4.2-1.1,5.9-3.3c2.2-2.7,3.4-6.2,3.4-9.6s-1.5-6.1-4.4-6.1-4.3,1.1-6,3.3Z"/>
      <path class="st2" d="M481.2,269.1c-.8,1.7-1.2,3.2-1.2,4.2s.6,1.9,1.7,1.9,1.7-.7,2.3-.7.4,0,.4.3h0c0,0-.2.8-.2.8-.2.7-.9.8-1.7,1.3-1.4.8-2.3,2-3.5,2-1.7,0-3.2-1.7-3.2-4.4s.4-2.9,1.1-4.7l2.8-6.8c.7-1.7,1-2.8,1-3.6,0-1.2-.8-2.2-2.1-2.2-2.8,0-8.1,4.1-10.6,11.5l-2.8,8.3c-.2.8-.4,1.2-1.1,1.2h-2.5c-.5,0-.8-.2-.8-.5s0-.3.1-.5l4.8-12.9c.9-2.4,1.4-4.2,1.4-5.3s-.5-1.7-1.3-1.7-.9.2-1.5.2-.5,0-.5-.2,0,0,0-.1l.3-.6c.4-.8,1.4-.7,3.4-1.4,1.5-.5,2.5-1.3,3.3-1.3s1.3.8,1.3,1.9-.4,2.3-1,3.9c4.5-3.8,7.6-5.8,9.8-5.8s3.9,1.9,3.9,4.6-.5,2.9-1.3,4.8l-2.5,5.8Z"/>
    </g>
    <g>
      <path class="st4" d="M309.5,247c.2,0,.3.1.3.3,0,.5-1,1.8-1.9,4.3-.8,2.1-.9,3.6-1.4,3.9l-1,.6s-.1,0-.2,0c-.2,0-.3,0-.3-.2,0-.6.5-1.6.5-2.9,0-2.1-1.7-3.3-4.8-3.3s-6.4,1.6-8.7,4.5c-3,3.9-4.7,9-4.7,13.4s2.4,7.7,6.2,7.7,3.8-.8,6-2c1.4-.8,2.1-1.6,2.8-1.6s.4.2.4.3,0,.2,0,.3l-.7,1.4c-.4.9-1.3,1.2-2.5,1.8-3.4,1.6-5.8,3.3-8.5,3.3-4.6,0-8.2-4.1-8.2-10.5s2.7-11.4,7.4-15.9c3.8-3.6,8.4-5.5,13.1-5.5s3.2.4,4,.4.9,0,1.3-.3h1c0-.1,0-.1,0-.1Z"/>
      <path class="st4" d="M316.3,259.7c4.4-3.8,7.6-5.9,9.9-5.9s3.9,1.9,3.9,4.6-.5,2.9-1.3,4.8l-2.5,5.8c-.8,1.8-1.2,3.2-1.2,4.2s.6,1.9,1.6,1.9,1.7-.7,2.3-.7.4,0,.4.3h0c0,0-.2.8-.2.8-.2.7-.9.8-1.8,1.3-1.4.8-2.3,2-3.5,2s-3.1-1.7-3.1-4.4.4-3,1.1-4.7l2.8-6.8c.7-1.7,1-2.8,1-3.6,0-1.3-.8-2.1-2.1-2.1-3,0-8,4-10.5,11.5l-2.8,8.3c-.2.8-.4,1.2-1.2,1.2h-2.5c-.5,0-.9-.2-.9-.5s0-.3.1-.5l8.6-23.8c.9-2.6,1.3-4.3,1.3-5.1s-.4-1.7-1.2-1.7-1,.2-1.6.2-.4,0-.4-.2,0,0,0-.1l.3-.6c.4-.8,1.4-.7,3.2-1.2,1.6-.5,2.6-1.2,3.4-1.2s1.5.7,1.5,2-.7,3.2-1.9,6.5l-2.8,7.8Z"/>
      <path class="st4" d="M357.3,258.2c-.2.3-.5.5-.7.5s-.3,0-.4,0c-3.2,4.7-4.8,8.9-4.8,12.9s.8,3.7,2.2,3.7,1.7-.8,2.2-.8.3.1.3.3h0v.2l-.2.7c-.2.6-.6.8-1.1,1.1-1.6,1.1-2.5,2.1-3.6,2.1-1.9,0-3.4-2.3-3.4-6.1s0-1.2.1-2c-1.9,2.3-3.6,4.6-5.1,6.9-.9.9-2,1.4-3.4,1.4-3.5,0-6-2.8-6-7.3s1.6-7.5,4.7-11c3.9-4.4,8.6-6.8,13.3-6.8s7.5,1.6,7.5,2.3-.1.3-.3.6l-1.2,1.5ZM349.5,256.1c-2.9,0-5.7,1.7-8.2,5-2.4,3.1-3.6,6.8-3.6,10s1.2,4.4,2.8,4.4c3.4,0,6.1-7,12.7-18.6-1.4-.6-2.6-.8-3.8-.8Z"/>
      <path class="st4" d="M378.6,253.9c1.9,0,3.5,1.8,3.5,4.3s0,.9-.2,1.5c4.2-3.6,7-5.8,8.9-5.8s3.5,1.8,3.5,4.4-.5,2.9-1.4,5l-2.4,5.8c-.7,1.7-1.2,3.1-1.2,4.2s.6,1.9,1.7,1.9,1.7-.7,2.3-.7.4,0,.4.3h0c0,0-.2.8-.2.8-.2.7-.9.8-1.7,1.3-1.4.9-2.3,2-3.5,2s-3.1-1.7-3.1-4.4.4-3,1.1-4.7l2.8-6.8c.7-1.6.9-2.9.9-3.6,0-1.2-.7-2-1.7-2s-2.7,1-4.7,2.9c-2.6,2.6-4,5.1-5.1,8.4l-2.7,8.3c-.2.7-.4,1.2-1.1,1.2h-2.4c-.5,0-.8-.2-.8-.5s0-.3,0-.5l5.2-14.2c.7-1.8.9-3,.9-3.6,0-1.2-.7-2-1.6-2s-2.8,1-4.8,3-4,5.3-5.1,8.4l-2.8,8.3c-.2.7-.4,1.2-1.1,1.2h-2.4c-.5,0-.8-.2-.8-.5s0-.3.1-.5l4.8-12.9c.9-2.4,1.4-4.2,1.4-5.3s-.5-1.7-1.3-1.7-.9.2-1.5.2-.5,0-.5-.2,0,0,0-.1l.3-.6c.4-.8,1.4-.7,3.4-1.4,1.5-.5,2.5-1.3,3.3-1.3s1.3.8,1.3,1.9-.4,2.3-1,3.9c4.2-3.6,6.9-5.8,8.9-5.8Z"/>
      <path class="st4" d="M400.3,281.3c-.4,1.2-.7,2.1-.7,2.8,0,1,.6,1.5,1.7,1.5s1.4,0,1.5,0c.3,0,.5,0,.5.2s0,0,0,.2l-.3.7c-.4.9-1.8.7-4.1,1.1-2.4.5-3.8,1.4-4.3,1.4s-.3,0-.3,0l-.3-.2c0,0-.1-.2-.1-.3,0-.8,1-3,2.5-7.2l6.6-18.6c.6-1.7,1-3,1-3.9s-.4-1.5-1.3-1.5-1.3.2-1.6.2-.4,0-.4-.2,0-.1,0-.2l.3-.6c.4-.8,1.4-.7,3.2-1.3,1.7-.5,2.8-1.3,3.5-1.3s1.3.7,1.3,1.7-.4,2.3-1,3.9c4.2-3.5,6.6-5.8,8.8-5.8s5,2.3,5,6.5-2,8.5-6,13c-3.3,3.7-6.8,5.5-9.1,5.5s-3.1-.6-5-1.7l-1.4,4ZM403.2,273.6c0,1.5,1.7,2.8,4.2,2.8s4.8-1.9,6.9-5.9c2.1-4,3-7.6,3-9.7s-.9-3.4-2.6-3.4c-2.7,0-6.8,3.2-9.3,9.7l-1.7,4.6c-.3.9-.5,1.5-.5,1.8Z"/>
      <path class="st4" d="M430.1,269.1c-.7,1.8-1.1,3.3-1.1,4.3s.6,1.9,1.6,1.9,1.7-.7,2.3-.7.3,0,.3.3h0c0,0-.2.8-.2.8-.2.7-.9.8-1.8,1.3-1.4.8-2.2,2-3.4,2s-3.2-1.7-3.2-4.3.4-2.9,1.1-4.8l2.1-5.5c.9-2.4,1.4-4.1,1.4-5.3s-.5-1.7-1.3-1.7-.9.2-1.5.2-.5,0-.5-.2,0,0,0-.1l.3-.6c.4-.8,1.4-.7,3.3-1.3,1.6-.5,2.7-1.4,3.7-1.4s1.3.7,1.3,1.7-.3,2-1,4.1l-3.4,9.4ZM436.8,246.9c.2.3.2.6.2.8,0,1.1-2.9,3.4-3.8,3.4s-1.9-2-1.9-3.4.4-.9,1.2-1.6c1.2-.9,1.9-1.4,2.5-1.4s.8.3,1.1,1l.6,1.1Z"/>
      <path class="st4" d="M459.3,261.5c0,3.8-2,8.6-5.8,12.5-3.3,3.4-6.8,5-9.8,5s-6.5-2.8-6.5-7.6,2-8.6,5.8-12.5c3.3-3.3,6.8-5,9.8-5s6.5,2.8,6.5,7.6ZM444.7,260.1c-2.2,2.7-3.4,6.4-3.4,10s1.6,5.8,4.4,5.8,4.2-1.1,5.9-3.3c2.2-2.7,3.4-6.2,3.4-9.6s-1.5-6.1-4.4-6.1-4.3,1.1-6,3.3Z"/>
      <path class="st4" d="M481.2,269.1c-.8,1.7-1.2,3.2-1.2,4.2s.6,1.9,1.7,1.9,1.7-.7,2.3-.7.4,0,.4.3h0c0,0-.2.8-.2.8-.2.7-.9.8-1.7,1.3-1.4.8-2.3,2-3.5,2-1.7,0-3.2-1.7-3.2-4.4s.4-2.9,1.1-4.7l2.8-6.8c.7-1.7,1-2.8,1-3.6,0-1.2-.8-2.2-2.1-2.2-2.8,0-8.1,4.1-10.6,11.5l-2.8,8.3c-.2.8-.4,1.2-1.1,1.2h-2.5c-.5,0-.8-.2-.8-.5s0-.3.1-.5l4.8-12.9c.9-2.4,1.4-4.2,1.4-5.3s-.5-1.7-1.3-1.7-.9.2-1.5.2-.5,0-.5-.2,0,0,0-.1l.3-.6c.4-.8,1.4-.7,3.4-1.4,1.5-.5,2.5-1.3,3.3-1.3s1.3.8,1.3,1.9-.4,2.3-1,3.9c4.5-3.8,7.6-5.8,9.8-5.8s3.9,1.9,3.9,4.6-.5,2.9-1.3,4.8l-2.5,5.8Z"/>
    </g>
  </g>
  <g>
    <path class="st2" d="M242.1,539.1c-4.8-5.2-7.3-12.8-7.3-22.6v-9.5h18v10.9c0,7.8,3.3,11.8,9.9,11.8s9.9-3.9,9.9-11.8v-27.2c0-8-3.3-11.9-9.9-11.9s-9.9,4-9.9,11.9v1h-18l3.5-67.7h50.2v17.3h-33.2l-1.6,28.9h.3c3.6-5.9,9.1-8.8,16.4-8.8s12.2,2.4,15.8,7.1c3.6,4.7,5.4,11.6,5.4,20.6v27.3c0,9.8-2.4,17.3-7.3,22.6-4.8,5.3-11.9,7.9-21.1,7.9s-16.3-2.6-21.1-7.9Z"/>
    <path class="st2" d="M310.9,545.2h-6.2v-18.3h18.3v16.4l-9.5,22.7h-8.8l6.2-20.8Z"/>
    <path class="st2" d="M343.2,539c-5-5.3-7.4-12.8-7.4-22.5v-63.7c0-9.7,2.5-17.2,7.4-22.5,5-5.3,12.1-8,21.5-8s16.5,2.7,21.5,8c5,5.3,7.4,12.8,7.4,22.5v63.7c0,9.7-2.5,17.2-7.4,22.5-5,5.3-12.1,8-21.5,8s-16.5-2.7-21.5-8ZM374.5,517.7v-66.1c0-8-3.3-11.9-9.9-11.9s-9.9,4-9.9,11.9v66.1c0,8,3.3,11.9,9.9,11.9s9.9-4,9.9-11.9Z"/>
    <path class="st2" d="M412.5,539c-5-5.3-7.4-12.8-7.4-22.5v-63.7c0-9.7,2.5-17.2,7.4-22.5,5-5.3,12.1-8,21.5-8s16.5,2.7,21.5,8c5,5.3,7.4,12.8,7.4,22.5v63.7c0,9.7-2.5,17.2-7.4,22.5-5,5.3-12.1,8-21.5,8s-16.5-2.7-21.5-8ZM443.8,517.7v-66.1c0-8-3.3-11.9-9.9-11.9s-9.9,4-9.9,11.9v66.1c0,8,3.3,11.9,9.9,11.9s9.9-4,9.9-11.9Z"/>
    <path class="st2" d="M481.7,539c-5-5.3-7.4-12.8-7.4-22.5v-63.7c0-9.7,2.5-17.2,7.4-22.5,5-5.3,12.1-8,21.5-8s16.5,2.7,21.5,8c5,5.3,7.4,12.8,7.4,22.5v63.7c0,9.7-2.5,17.2-7.4,22.5-5,5.3-12.1,8-21.5,8s-16.5-2.7-21.5-8ZM513,517.7v-66.1c0-8-3.3-11.9-9.9-11.9s-9.9,4-9.9,11.9v66.1c0,8,3.3,11.9,9.9,11.9s9.9-4,9.9-11.9Z"/>
    <path class="st1" d="M329.5,574.7h16.3c5.6,0,9.6,1.3,12.2,3.9,2.6,2.6,3.8,6.6,3.8,11.9v2.8c0,3.5-.6,6.4-1.7,8.7-1.1,2.2-2.9,3.8-5.3,4.8v.2c5.4,1.8,8.1,6.6,8.1,14.4v5.9c0,5.3-1.4,9.4-4.2,12.1-2.8,2.8-6.9,4.2-12.2,4.2h-17v-68.8ZM344.6,602.8c2.2,0,3.8-.6,4.9-1.7,1.1-1.1,1.6-3,1.6-5.6v-3.8c0-2.5-.4-4.3-1.3-5.4-.9-1.1-2.3-1.7-4.2-1.7h-5.2v18.2h4.2ZM346.5,633.7c1.9,0,3.3-.5,4.2-1.5.9-1,1.4-2.8,1.4-5.3v-6c0-3.1-.5-5.3-1.6-6.5-1.1-1.2-2.9-1.8-5.4-1.8h-4.8v21.1h6.2Z"/>
    <path class="st1" d="M369.3,574.7h16.5c5.4,0,9.4,1.4,12.1,4.3,2.7,2.9,4,7.1,4,12.7v34.8c0,5.6-1.3,9.8-4,12.7-2.7,2.9-6.7,4.3-12.1,4.3h-16.5v-68.8ZM385.6,633.7c1.8,0,3.1-.5,4.1-1.6.9-1,1.4-2.8,1.4-5.1v-35.8c0-2.4-.5-4.1-1.4-5.1-1-1-2.3-1.6-4.1-1.6h-5.5v49.2h5.5Z"/>
    <path class="st1" d="M417.3,584.6h-11.3v-9.8h33.4v9.8h-11.3v59h-10.8v-59Z"/>
  </g>
</svg>