<?xml version="1.0" encoding="UTF-8"?>
<svg id="Layer_1" xmlns="http://www.w3.org/2000/svg" version="1.1" xmlns:xlink="http://www.w3.org/1999/xlink" viewBox="0 0 768 786.3">
  <!-- Generator: Adobe Illustrator 29.8.2, SVG Export Plug-In . SVG Version: 2.1.1 Build 3)  -->
  <defs>
    <style>
      .st0 {
        fill: url(#linear-gradient2);
      }

      .st1 {
        fill: #00baff;
      }

      .st2 {
        fill: #fff;
      }

      .st3 {
        fill: url(#linear-gradient1);
      }

      .st4 {
        stroke: #b6eeff;
        stroke-width: 3.1px;
      }

      .st4, .st5 {
        fill: none;
        stroke-miterlimit: 10;
      }

      .st5 {
        stroke: url(#linear-gradient);
        stroke-width: 14.2px;
      }

      .st6 {
        fill: url(#linear-gradient3);
      }
    </style>
    <linearGradient id="linear-gradient" x1="179.7" y1="274.9" x2="587.8" y2="510.5" gradientUnits="userSpaceOnUse">
      <stop offset="0" stop-color="#0080ff"/>
      <stop offset=".5" stop-color="#00f4ff"/>
      <stop offset=".9" stop-color="#00a0ff"/>
      <stop offset="1" stop-color="#0080ff"/>
    </linearGradient>
    <linearGradient id="linear-gradient1" x1="234.2" y1="231.7" x2="234.2" y2="362.7" gradientUnits="userSpaceOnUse">
      <stop offset="0" stop-color="#00f4ff"/>
      <stop offset=".7" stop-color="#00a0ff"/>
      <stop offset="1" stop-color="#0080ff"/>
    </linearGradient>
    <linearGradient id="linear-gradient2" x1="533.3" x2="533.3" xlink:href="#linear-gradient1"/>
    <linearGradient id="linear-gradient3" x1="382.7" y1="229.6" x2="382.7" y2="355.6" xlink:href="#linear-gradient1"/>
  </defs>
  <rect class="st5" x="217.4" y="102.1" width="332.6" height="581.2" rx="166.3" ry="166.3"/>
  <g>
    <g>
      <path class="st2" d="M349.2,356c-.1.3-.4.4-.8.3-2.9-.8-6.8,2.1-7.7,4.4-.1.3-.4.4-.7.4-.4,0-.7-.3-.7-.7-.4-5.8-5.5-8.4-10.5-10.7-6.7-3.2-8.3-5-8.7-9.7-5.5-10.7-21-18.3-26.3-20.7-2.8-1.3-5.7-2.4-8.7-3.3s-6.2-1.4-9.3-2.2c-1.6-.4-3.1-.9-4.6-1.5s-2.9-1.5-4.4-2.3c-3.1-1.6-6-3.7-9.1-5.5-.4-.2-.8-.5-1.2-.7s-1.1-.5-1.1-.6c-.8-2.4-2.4-7.1-2.7-9.5-8-2.6-16.7-3.9-25.5-4.5-9.9-.7-19.9-.4-29.9.5-10,.9-19.9,2.4-29.8,4.6-9.8,2.2-19.5,5-28.6,9.4l-.6-1.1c8.9-5.2,18.5-8.8,28.3-11.9,9.8-3,19.8-5.3,29.9-7.1,10.1-1.7,20.4-2.9,30.8-3,5.3,0,10.6,0,15.9.6-6.7-1.9-13.6-3.5-20.6-4.8-11.3-2.2-22.7-3.9-34.1-5.2-11.5-1.3-23-2.2-34.5-2.5-11.5-.3-23.1-.2-34.6.9l-.2-1.6c11.5-2,23.2-2.9,34.9-3.3,11.6-.4,23.4-.3,35,.2,11.7.5,23.4,1.5,35,2.9,6.4.8,12.9,1.9,19.4,3.1-1.1-.5-2.3-1-3.4-1.5-5.2-2.2-10.6-4.3-15.9-6.3-10.8-4-21.7-7.7-32.6-11.2-11-3.5-22-6.7-33.1-9.6-11.1-2.9-22.3-5.6-33.7-7.3l.2-1.7c11.5,1.2,22.9,3.2,34.3,5.6,11.4,2.3,22.6,5,33.8,7.9,11.2,2.9,22.3,6.1,33.4,9.6,5.6,1.7,11.1,3.5,16.6,5.5,5.6,2.1,13.4,5.1,13.4,5.1-4.8,19.6,11.7,35,20,38.2,8.3,3.1,25.1,9.8,26.9,11l-.7-3.1,8.4,6.7-.5-4.5,8.6,9.7-.3-4.5,10.5,13.1c-2.9-6.8-6.9-13.1-12-18.5-3.6-3.9-7.6-7.4-12-10.4-4.4-3-9-5.7-14-7.5l.4-1.3c5.3,1.5,10.3,4,15,6.9,4.7,2.9,9.1,6.3,13.1,10.1,7.3,6.9,14.4,17.6,18.3,27.7.2.5.4,1,.6,1.5.3.7.7,1.5,1.1,2.2,1.5,2.8,3.3,4.9,4.9,6.6l4.5,4.5c.2.2.3.5.1.8Z"/>
      <path class="st3" d="M124.9,233.4c11.5,1.2,22.9,3.2,34.3,5.6,11.4,2.3,22.6,5,33.8,7.9,11.2,2.9,22.3,6.1,33.4,9.6,5.6,1.7,11.1,3.5,16.6,5.5,5.6,2.1,13.4,5.1,13.4,5.1-4.8,19.6,11.7,35,20,38.2,8.3,3.1,25.1,9.8,26.9,11l-.7-3.1,8.4,6.7-.5-4.5,8.6,9.7-.3-4.5,10.5,13.1c-2.9-6.8-6.9-13.1-12-18.5-3.6-3.9-7.6-7.4-12-10.4-4.4-3-9-5.7-14-7.5l.4-1.3c5.3,1.5,10.3,4,15,6.9,4.7,2.9,9.1,6.3,13.1,10.1,7.3,6.9,14.4,17.6,18.3,27.7.2.5.4,1,.6,1.5.3.7.7,1.5,1.1,2.2,1.5,2.8,3.3,4.9,4.9,6.6l4.5,4.5c.2.2.3.5.1.8-.1.2-.3.3-.5.3s-.1,0-.2,0c-.3,0-.7-.1-1-.1-2.7,0-5.9,2.5-6.7,4.6-.1.3-.4.4-.7.4-.4,0-.7-.3-.7-.7-.4-5.8-5.5-8.4-10.5-10.7-6.7-3.2-8.3-5-8.7-9.7-5.5-10.7-21-18.3-26.3-20.7-2.8-1.3-5.7-2.4-8.7-3.3-3.1-.9-6.2-1.4-9.3-2.2-1.6-.4-3.1-.9-4.6-1.5-1.6-.6-2.9-1.5-4.4-2.3-3.1-1.6-6-3.7-9.1-5.5-.4-.2-.8-.5-1.2-.7-.2-.1-1.1-.5-1.1-.6-.8-2.4-2.4-7.1-2.7-9.5-8-2.6-16.7-3.9-25.5-4.5-3.7-.2-7.4-.4-11.1-.4-6.2,0-12.5.3-18.8.9-10,.9-19.9,2.4-29.8,4.6-9.8,2.2-19.5,5-28.6,9.4l-.6-1.1c8.9-5.2,18.5-8.8,28.3-11.9,9.8-3,19.8-5.3,29.9-7.1,10.1-1.7,20.4-2.9,30.8-3,.8,0,1.7,0,2.5,0,4.4,0,8.9.2,13.4.6-6.7-1.9-13.6-3.5-20.6-4.8-11.3-2.2-22.7-3.9-34.1-5.2-11.5-1.3-23-2.2-34.5-2.5-3.6-.1-7.1-.2-10.7-.2-8,0-16,.3-24,1.1l-.2-1.6c11.5-2,23.2-2.9,34.9-3.3,4.9-.2,9.9-.3,14.8-.3s13.5.2,20.2.5c11.7.5,23.4,1.5,35,2.9,6.4.8,12.9,1.9,19.4,3.1-1.1-.5-2.3-1-3.4-1.5-5.2-2.2-10.6-4.3-15.9-6.3-10.8-4-21.7-7.7-32.6-11.2-11-3.5-22-6.7-33.1-9.6-11.1-2.9-22.3-5.6-33.7-7.3l.2-1.7M123.6,231.7l-.2,1.5-.2,1.7-.2,1.5,1.5.2c12.2,1.9,24.4,4.9,33.5,7.3,10.7,2.8,21.5,5.9,33,9.6,11.6,3.7,22.2,7.4,32.5,11.2,2.3.8,4.4,1.7,6.5,2.5-1.9-.3-3.8-.5-5.8-.8-10.9-1.4-22.5-2.4-35.2-3-6.9-.3-13.7-.5-20.2-.5s-10.1,0-14.9.3c-13.7.6-24.8,1.6-35.1,3.4l-1.4.2.2,1.5.2,1.6.2,1.5h1.5c7.3-.9,15.1-1.2,23.8-1.2,3.4,0,6.8,0,10.6.2,11,.3,22.6,1.2,34.4,2.5,11.7,1.3,23.1,3,34,5.2,2.1.4,4,.8,6,1.2-.3,0-.7,0-1,0-9.8.1-20,1.1-31.1,3-10.5,1.8-20.6,4.2-30.1,7.1-11.9,3.7-20.8,7.4-28.6,12l-1.3.8.7,1.3.6,1.1.7,1.2,1.3-.6c7.8-3.7,16.5-6.6,28.3-9.3,9.4-2.1,19.3-3.6,29.6-4.6,6.6-.6,12.7-.9,18.7-.9s7.5.1,11,.4c9.4.6,17.3,2,24.3,4.1.5,2.3,1.6,5.6,2.3,7.9l.3.9c.2.8.9,1.1,1.7,1.4,0,0,.1,0,.2,0,.4.2.8.5,1.2.7,1.1.7,2.2,1.4,3.3,2.1,1.9,1.2,3.8,2.4,5.8,3.5.5.2.9.5,1.4.8,1,.6,2,1.1,3.1,1.6,1.4.6,3,1.1,4.8,1.6,1.4.4,2.9.7,4.3,1,1.6.4,3.3.7,5,1.2,2.8.8,5.6,1.9,8.5,3.2,7.4,3.4,20.5,10.3,25.4,19.7.5,5.4,3,7.5,9.6,10.7,5.4,2.6,9.3,4.7,9.6,9.5h0s0,0,0,0c.1,1,.9,1.8,1.9,2h.1s.1,0,.1,0c.9,0,1.7-.5,2-1.4.7-1.6,3.3-3.6,5.3-3.6.2,0,.4,0,.6,0,.2,0,.4,0,.6,0,.8,0,1.5-.4,1.8-1.1.5-.9.4-2-.3-2.7l-4.6-4.5c-1.8-1.8-3.4-3.9-4.7-6.2-.4-.8-.7-1.5-1-2.1,0-.2-.2-.5-.3-.7,0-.2-.2-.5-.3-.7-3.9-10.2-11-21-18.6-28.2-4-3.9-8.5-7.3-13.3-10.3-5.7-3.4-10.6-5.7-15.3-7l-1.4-.4-.4,1.4-.4,1.3-.4,1.4,1.4.5c4.3,1.5,8.6,3.8,13.7,7.3,4.3,3,8.3,6.5,11.8,10.2.3.3.6.6.9,1l.2,3.6h0c0,.1-5.7-6.3-5.7-6.3l-3.2-3.6.6,4.8v.9c.1,0-5.4-4.4-5.4-4.4l-3.4-2.7.9,4.2h0c-6-2.7-18.7-7.6-24.2-9.7-7.5-2.9-23.7-17.4-19.1-36.4l.3-1.3-1.2-.5c0,0-7.9-3-13.4-5.1-5.5-2-10.9-3.8-16.6-5.5-10.5-3.3-21.4-6.5-33.5-9.6-12.3-3.2-23.4-5.8-33.9-8-10-2.1-22-4.3-34.4-5.6h-1.5Z"/>
    </g>
    <g>
      <path class="st2" d="M418.2,356c.1.3.4.4.8.3,2.9-.8,6.8,2.1,7.7,4.4.1.3.4.4.7.4.4,0,.7-.3.7-.7.4-5.8,5.5-8.4,10.5-10.7,6.7-3.2,8.3-5,8.7-9.7,5.5-10.7,21-18.3,26.3-20.7,2.8-1.3,5.7-2.4,8.7-3.3s6.2-1.4,9.3-2.2c1.6-.4,3.1-.9,4.6-1.5s2.9-1.5,4.4-2.3c3.1-1.6,6-3.7,9.1-5.5.4-.2.8-.5,1.2-.7s1.1-.5,1.1-.6c.8-2.4,2.4-7.1,2.7-9.5,8-2.6,16.7-3.9,25.5-4.5,9.9-.7,19.9-.4,29.9.5,10,.9,19.9,2.4,29.8,4.6,9.8,2.2,19.5,5,28.6,9.4l.6-1.1c-8.9-5.2-18.5-8.8-28.3-11.9-9.8-3-19.8-5.3-29.9-7.1-10.1-1.7-20.4-2.9-30.8-3-5.3,0-10.6,0-15.9.6,6.7-1.9,13.6-3.5,20.6-4.8,11.3-2.2,22.7-3.9,34.1-5.2,11.5-1.3,23-2.2,34.5-2.5,11.5-.3,23.1-.2,34.6.9l.2-1.6c-11.5-2-23.2-2.9-34.9-3.3-11.6-.4-23.4-.3-35,.2-11.7.5-23.4,1.5-35,2.9-6.4.8-12.9,1.9-19.4,3.1,1.1-.5,2.3-1,3.4-1.5,5.2-2.2,10.6-4.3,15.9-6.3,10.8-4,21.7-7.7,32.6-11.2,11-3.5,22-6.7,33.1-9.6,11.1-2.9,22.3-5.6,33.7-7.3l-.2-1.7c-11.5,1.2-22.9,3.2-34.3,5.6-11.4,2.3-22.6,5-33.8,7.9-11.2,2.9-22.3,6.1-33.4,9.6-5.6,1.7-11.1,3.5-16.6,5.5-5.6,2.1-13.4,5.1-13.4,5.1,4.8,19.6-11.7,35-20,38.2-8.3,3.1-25.1,9.8-26.9,11l.7-3.1-8.4,6.7.5-4.5-8.6,9.7.3-4.5-10.5,13.1c2.9-6.8,6.9-13.1,12-18.5,3.6-3.9,7.6-7.4,12-10.4,4.4-3,9-5.7,14-7.5l-.4-1.3c-5.3,1.5-10.3,4-15,6.9-4.7,2.9-9.1,6.3-13.1,10.1-7.3,6.9-14.4,17.6-18.3,27.7-.2.5-.4,1-.6,1.5-.3.7-.7,1.5-1.1,2.2-1.5,2.8-3.3,4.9-4.9,6.6l-4.5,4.5c-.2.2-.3.5-.1.8Z"/>
      <path class="st0" d="M642.5,233.4l.2,1.7c-11.4,1.7-22.6,4.4-33.7,7.3-11.1,2.9-22.2,6.1-33.1,9.6-11,3.5-21.8,7.2-32.6,11.2-5.3,2-10.7,4.1-15.9,6.3-1.1.5-2.3,1-3.4,1.5,6.4-1.3,12.9-2.3,19.4-3.1,11.7-1.5,23.3-2.4,35-2.9,6.7-.3,13.4-.5,20.2-.5,5,0,9.9,0,14.8.3,11.7.5,23.3,1.4,34.9,3.3l-.2,1.6c-8-.8-16-1.1-24-1.1s-7.1,0-10.7.2c-11.5.3-23.1,1.2-34.5,2.5-11.5,1.3-22.9,3-34.1,5.2-6.9,1.4-13.8,2.9-20.6,4.8,4.5-.4,8.9-.6,13.4-.6s1.7,0,2.5,0c10.4.1,20.7,1.3,30.8,3,10.2,1.7,20.2,4.1,29.9,7.1,9.8,3.1,19.4,6.7,28.3,11.9l-.6,1.1c-9.1-4.4-18.8-7.2-28.6-9.4-9.8-2.2-19.8-3.7-29.8-4.6-6.3-.5-12.6-.9-18.8-.9s-7.4.1-11.1.4c-8.8.6-17.5,1.9-25.5,4.5-.4,2.3-2,7.1-2.7,9.5,0,.2-.9.5-1.1.6-.4.2-.8.5-1.2.7-3,1.8-5.9,3.9-9.1,5.5-1.5.8-2.8,1.7-4.4,2.3-1.5.6-3.1,1.1-4.6,1.5-3.1.8-6.2,1.3-9.3,2.2-3,.9-5.9,2-8.7,3.3-5.3,2.4-20.8,9.9-26.3,20.7-.4,4.7-2.1,6.5-8.7,9.7-5,2.4-10,4.9-10.5,10.7,0,.3-.3.6-.7.7-.3,0-.5-.2-.7-.4-.8-2.1-4-4.6-6.7-4.6s-.7,0-1,.1c0,0-.1,0-.2,0-.2,0-.4-.1-.5-.3-.2-.3-.1-.6.1-.8l4.5-4.5c1.6-1.6,3.4-3.8,4.9-6.6.4-.8.8-1.5,1.1-2.2.2-.5.4-1,.6-1.5,3.8-10,11-20.7,18.3-27.7,4-3.8,8.4-7.2,13.1-10.1,4.7-2.8,9.6-5.3,15-6.9l.4,1.3c-5,1.7-9.7,4.5-14,7.5-4.4,3.1-8.4,6.5-12,10.4-5.1,5.4-9.1,11.8-12,18.5l10.5-13.1-.3,4.5,8.6-9.7-.5,4.5,8.4-6.7-.7,3.1c1.9-1.3,18.6-7.9,26.9-11,8.3-3.2,24.8-18.6,20-38.2,0,0,7.8-3,13.4-5.1,5.5-2,11-3.8,16.6-5.5,11.1-3.5,22.2-6.7,33.4-9.6,11.2-2.9,22.5-5.6,33.8-7.9,11.4-2.3,22.7-4.4,34.3-5.6M643.8,231.7h-1.5c-12.4,1.4-24.4,3.7-34.4,5.7-10.5,2.1-21.6,4.7-33.9,8-12,3.2-23,6.3-33.5,9.6-5.7,1.8-11.1,3.6-16.6,5.5-5.6,2.1-13.4,5.1-13.4,5.1l-1.2.5.3,1.3c4.6,19-11.6,33.5-19.1,36.4-5.5,2.1-18.2,7-24.2,9.7h0s.9-4.2.9-4.2l-3.4,2.7-5.5,4.4v-.9c.1,0,.7-4.8.7-4.8l-3.2,3.6-5.7,6.4h0c0-.1.2-3.7.2-3.7.3-.3.6-.6.9-1,3.5-3.8,7.4-7.2,11.8-10.2,5.1-3.5,9.4-5.8,13.7-7.3l1.4-.5-.4-1.4-.4-1.3-.4-1.4-1.4.4c-4.8,1.4-9.6,3.6-15.3,7-4.8,3-9.3,6.4-13.3,10.3-7.6,7.2-14.8,18-18.6,28.2,0,.2-.2.5-.3.7,0,.2-.2.5-.3.7-.3.6-.6,1.3-1,2.1-1.3,2.3-2.8,4.4-4.7,6.2l-4.5,4.5c-.7.7-.9,1.8-.3,2.7.4.7,1.1,1.1,1.8,1.1s.4,0,.6,0c.2,0,.4,0,.6,0,2,0,4.7,2,5.3,3.6.4.9,1.2,1.4,2.1,1.4h.3c1.1-.2,1.8-1,1.9-2h0s0,0,0,0c.4-4.7,4.2-6.9,9.6-9.5,6.5-3.1,9-5.2,9.6-10.7,4.9-9.4,18-16.4,25.4-19.7,2.9-1.3,5.8-2.4,8.5-3.2,1.6-.5,3.3-.8,5-1.2,1.4-.3,2.9-.6,4.3-1,1.8-.5,3.4-1,4.8-1.6,1.1-.5,2.2-1,3.1-1.6.5-.3.9-.5,1.4-.8,2-1.1,4-2.3,5.8-3.5,1.1-.7,2.2-1.4,3.3-2.1.4-.2.8-.5,1.2-.7,0,0,0,0,.2,0,.7-.3,1.4-.7,1.7-1.4l.3-.9c.7-2.3,1.8-5.6,2.3-7.9,7-2.2,14.9-3.5,24.3-4.1,3.5-.2,7.2-.4,11-.4,5.9,0,12,.3,18.7.9,10.2.9,20.2,2.5,29.6,4.6,11.8,2.7,20.5,5.5,28.3,9.3l1.3.6.7-1.2.6-1.1.7-1.3-1.3-.8c-7.8-4.6-16.6-8.3-28.6-12-9.5-2.9-19.7-5.3-30.1-7.1-11.1-1.9-21.2-2.9-31.1-3-.3,0-.7,0-1,0,1.9-.4,3.9-.8,6-1.2,10.9-2.1,22.3-3.9,34-5.2,11.8-1.3,23.4-2.2,34.4-2.5,3.8-.1,7.3-.2,10.6-.2,8.7,0,16.5.4,23.8,1.1h1.5c0,.1.2-1.3.2-1.3l.2-1.6.2-1.5-1.4-.2c-10.2-1.7-21.4-2.8-35.1-3.4-4.8-.2-9.9-.3-14.9-.3-6.5,0-13.3.2-20.2.5-12.7.6-24.2,1.6-35.2,3-2,.3-3.9.5-5.8.8,2-.8,4.2-1.6,6.5-2.5,10.3-3.8,21-7.5,32.5-11.2,11.5-3.7,22.3-6.8,33-9.6,9.2-2.4,21.3-5.4,33.5-7.3l1.5-.2-.2-1.5-.2-1.7-.2-1.5h0Z"/>
    </g>
  </g>
  <g>
    <path d="M415.6,355.6h-72.6v-2c22.3-26.5,35.8-44.4,40.6-53.5,4.8-9.2,7.1-18.1,7.1-26.9s-2-11.7-5.9-15.9c-3.9-4.2-8.8-6.3-14.5-6.3-9.3,0-16.6,4.7-21.8,14l-3.4-1.2c3.3-11.7,8.3-20.3,14.9-25.9,6.7-5.6,14.4-8.4,23.1-8.4s12,1.5,17.1,4.4c5.2,2.9,9.2,6.9,12.1,12,2.9,5.1,4.4,9.8,4.4,14.2,0,8.1-2.2,16.3-6.7,24.6-6.1,11.2-19.5,26.9-40.1,47h26.7c6.6,0,10.8-.3,12.8-.8,2-.5,3.6-1.5,4.9-2.8,1.3-1.3,2.9-4.1,5-8.2h3.3l-6.9,35.7Z"/>
    <path class="st6" d="M415.6,355.6h-72.6v-2c22.3-26.5,35.8-44.4,40.6-53.5,4.8-9.2,7.1-18.1,7.1-26.9s-2-11.7-5.9-15.9c-3.9-4.2-8.8-6.3-14.5-6.3-9.3,0-16.6,4.7-21.8,14l-3.4-1.2c3.3-11.7,8.3-20.3,14.9-25.9,6.7-5.6,14.4-8.4,23.1-8.4s12,1.5,17.1,4.4c5.2,2.9,9.2,6.9,12.1,12,2.9,5.1,4.4,9.8,4.4,14.2,0,8.1-2.2,16.3-6.7,24.6-6.1,11.2-19.5,26.9-40.1,47h26.7c6.6,0,10.8-.3,12.8-.8,2-.5,3.6-1.5,4.9-2.8,1.3-1.3,2.9-4.1,5-8.2h3.3l-6.9,35.7Z"/>
    <path class="st4" d="M415.6,355.6h-72.6v-2c22.3-26.5,35.8-44.4,40.6-53.5,4.8-9.2,7.1-18.1,7.1-26.9s-2-11.7-5.9-15.9c-3.9-4.2-8.8-6.3-14.5-6.3-9.3,0-16.6,4.7-21.8,14l-3.4-1.2c3.3-11.7,8.3-20.3,14.9-25.9,6.7-5.6,14.4-8.4,23.1-8.4s12,1.5,17.1,4.4c5.2,2.9,9.2,6.9,12.1,12,2.9,5.1,4.4,9.8,4.4,14.2,0,8.1-2.2,16.3-6.7,24.6-6.1,11.2-19.5,26.9-40.1,47h26.7c6.6,0,10.8-.3,12.8-.8,2-.5,3.6-1.5,4.9-2.8,1.3-1.3,2.9-4.1,5-8.2h3.3l-6.9,35.7Z"/>
  </g>
  <g>
    <path class="st2" d="M254.7,525.3c-4.3-4.7-6.5-11.4-6.5-20.2v-8.9h16.3v9.7c0,7.2,3,10.8,8.9,10.8s5.1-.9,6.7-2.7c1.5-1.8,2.3-5,2.3-9.6v-8.9c0-5-.9-8.6-2.7-10.7-1.8-2.1-4.6-3.2-8.6-3.2h-5.8v-15.7h6.3c3.4,0,6-.9,7.8-2.7,1.7-1.8,2.6-4.8,2.6-8.9v-8c0-3.8-.8-6.5-2.4-8.3-1.6-1.8-3.7-2.7-6.3-2.7-5.5,0-8.3,3.4-8.3,10.2v7.2h-16.3v-5.8c0-8.8,2.2-15.5,6.5-20.2,4.3-4.7,10.6-7.1,18.7-7.1s14.5,2.3,18.8,7c4.3,4.7,6.4,11.4,6.4,20.1v3.9c0,6-1,10.7-3,14.3-2,3.6-5.1,6.2-9.2,7.8v.3c4.5,1.7,7.7,4.4,9.7,8.1,2,3.8,3,8.6,3,14.4v9.7c0,8.8-2.2,15.5-6.5,20.1-4.3,4.7-10.7,7-19.2,7s-14.9-2.4-19.2-7.1Z"/>
    <path class="st2" d="M317.7,530.8h-5.6v-16.6h16.6v14.9l-8.6,20.5h-8l5.6-18.8Z"/>
    <path class="st2" d="M347,525.2c-4.5-4.8-6.7-11.6-6.7-20.4v-57.7c0-8.8,2.2-15.6,6.7-20.4,4.5-4.8,11-7.2,19.4-7.2s14.9,2.4,19.4,7.2c4.5,4.8,6.7,11.6,6.7,20.4v57.7c0,8.8-2.2,15.6-6.7,20.4-4.5,4.8-11,7.2-19.4,7.2s-14.9-2.4-19.4-7.2ZM375.4,505.9v-59.9c0-7.2-3-10.8-8.9-10.8s-8.9,3.6-8.9,10.8v59.9c0,7.2,3,10.8,8.9,10.8s8.9-3.6,8.9-10.8Z"/>
    <path class="st2" d="M409.7,525.2c-4.5-4.8-6.7-11.6-6.7-20.4v-57.7c0-8.8,2.2-15.6,6.7-20.4,4.5-4.8,11-7.2,19.4-7.2s14.9,2.4,19.4,7.2c4.5,4.8,6.7,11.6,6.7,20.4v57.7c0,8.8-2.2,15.6-6.7,20.4-4.5,4.8-11,7.2-19.4,7.2s-14.9-2.4-19.4-7.2ZM438.1,505.9v-59.9c0-7.2-3-10.8-8.9-10.8s-8.9,3.6-8.9,10.8v59.9c0,7.2,3,10.8,8.9,10.8s8.9-3.6,8.9-10.8Z"/>
    <path class="st2" d="M472.4,525.2c-4.5-4.8-6.7-11.6-6.7-20.4v-57.7c0-8.8,2.2-15.6,6.7-20.4,4.5-4.8,11-7.2,19.4-7.2s14.9,2.4,19.4,7.2c4.5,4.8,6.7,11.6,6.7,20.4v57.7c0,8.8-2.2,15.6-6.7,20.4-4.5,4.8-11,7.2-19.4,7.2s-14.9-2.4-19.4-7.2ZM500.8,505.9v-59.9c0-7.2-3-10.8-8.9-10.8s-8.9,3.6-8.9,10.8v59.9c0,7.2,3,10.8,8.9,10.8s8.9-3.6,8.9-10.8Z"/>
    <path class="st1" d="M334.7,557.5h14.8c5,0,8.7,1.2,11,3.5,2.3,2.3,3.5,6,3.5,10.8v2.5c0,3.2-.5,5.8-1.6,7.8-1,2-2.6,3.5-4.8,4.4v.2c4.9,1.7,7.3,6,7.3,13v5.3c0,4.8-1.3,8.5-3.8,11-2.5,2.5-6.2,3.8-11.1,3.8h-15.4v-62.3ZM348.3,582.9c2,0,3.4-.5,4.4-1.5,1-1,1.5-2.7,1.5-5.1v-3.5c0-2.3-.4-3.9-1.2-4.9-.8-1-2.1-1.5-3.8-1.5h-4.7v16.5h3.8ZM350.1,610.9c1.7,0,3-.5,3.8-1.4.8-.9,1.2-2.5,1.2-4.8v-5.4c0-2.8-.5-4.8-1.5-5.9-1-1.1-2.6-1.6-4.9-1.6h-4.4v19.1h5.6Z"/>
    <path class="st1" d="M370.6,557.5h15c4.9,0,8.5,1.3,11,3.9,2.4,2.6,3.7,6.4,3.7,11.5v31.5c0,5-1.2,8.9-3.7,11.5-2.4,2.6-6.1,3.9-11,3.9h-15v-62.3ZM385.4,610.9c1.6,0,2.8-.5,3.7-1.4.9-.9,1.3-2.5,1.3-4.6v-32.4c0-2.1-.4-3.7-1.3-4.6-.9-.9-2.1-1.4-3.7-1.4h-5v44.5h5Z"/>
    <path class="st1" d="M414.1,566.4h-10.2v-8.9h30.3v8.9h-10.2v53.4h-9.8v-53.4Z"/>
  </g>
</svg>