<?xml version="1.0" encoding="UTF-8"?>
<svg id="Layer_1" xmlns="http://www.w3.org/2000/svg" version="1.1" xmlns:xlink="http://www.w3.org/1999/xlink" viewBox="0 0 768 786.3">
  <!-- Generator: Adobe Illustrator 29.8.2, SVG Export Plug-In . SVG Version: 2.1.1 Build 3)  -->
  <defs>
    <style>
      .st0 {
        fill: url(#linear-gradient2);
      }

      .st1 {
        fill: #00baff;
      }

      .st2 {
        fill: #fff;
      }

      .st3 {
        fill: url(#linear-gradient1);
      }

      .st4 {
        stroke: url(#linear-gradient);
        stroke-width: 12.8px;
      }

      .st4, .st5 {
        fill: none;
        stroke-miterlimit: 10;
      }

      .st5 {
        stroke: #b6eeff;
        stroke-width: 2.7px;
      }

      .st6 {
        fill: url(#linear-gradient3);
      }
    </style>
    <linearGradient id="linear-gradient" x1="199.9" y1="286.6" x2="567.6" y2="498.9" gradientUnits="userSpaceOnUse">
      <stop offset="0" stop-color="#0080ff"/>
      <stop offset=".5" stop-color="#00f4ff"/>
      <stop offset=".9" stop-color="#00a0ff"/>
      <stop offset="1" stop-color="#0080ff"/>
    </linearGradient>
    <linearGradient id="linear-gradient1" x1="273.4" y1="268.8" x2="273.4" y2="365.4" gradientUnits="userSpaceOnUse">
      <stop offset="0" stop-color="#00f4ff"/>
      <stop offset=".7" stop-color="#00a0ff"/>
      <stop offset="1" stop-color="#0080ff"/>
    </linearGradient>
    <linearGradient id="linear-gradient2" x1="494.1" x2="494.1" xlink:href="#linear-gradient1"/>
    <linearGradient id="linear-gradient3" x1="388.2" y1="253.6" x2="388.2" y2="364.1" xlink:href="#linear-gradient1"/>
  </defs>
  <rect class="st4" x="233.9" y="130.9" width="299.7" height="523.7" rx="149.8" ry="149.8"/>
  <g>
    <g>
      <path class="st2" d="M358.2,360.5c-.1.2-.3.3-.6.2-2.1-.6-5,1.6-5.7,3.3,0,.2-.3.3-.5.3-.3,0-.5-.2-.5-.5-.3-4.3-4.1-6.2-7.7-7.9-4.9-2.3-6.1-3.7-6.4-7.2-4-7.9-15.5-13.5-19.4-15.2-2.1-.9-4.2-1.8-6.4-2.4s-4.6-1-6.9-1.6c-1.2-.3-2.3-.7-3.4-1.1s-2.2-1.1-3.2-1.7c-2.3-1.2-4.4-2.7-6.7-4.1-.3-.2-.6-.4-.9-.5s-.8-.3-.8-.5c-.6-1.7-1.7-5.3-2-7-5.9-1.9-12.3-2.9-18.8-3.3-7.3-.5-14.7-.3-22,.4-7.4.7-14.7,1.8-22,3.4-7.2,1.6-14.4,3.7-21.1,6.9l-.5-.8c6.6-3.8,13.7-6.5,20.9-8.8,7.2-2.2,14.6-3.9,22.1-5.2,7.5-1.3,15.1-2.1,22.7-2.2,3.9,0,7.8,0,11.7.4-5-1.4-10.1-2.6-15.2-3.6-8.3-1.6-16.7-2.9-25.2-3.8-8.5-1-17-1.6-25.5-1.9-8.5-.2-17.1-.2-25.6.7l-.2-1.2c8.5-1.4,17.1-2.1,25.7-2.5,8.6-.3,17.2-.2,25.8.1,8.6.4,17.2,1.1,25.9,2.2,4.8.6,9.5,1.4,14.3,2.3-.8-.3-1.7-.7-2.5-1.1-3.9-1.6-7.8-3.1-11.8-4.6-7.9-3-16-5.7-24.1-8.3-8.1-2.6-16.2-5-24.4-7.1-8.2-2.1-16.5-4.1-24.9-5.4l.2-1.3c8.5.9,16.9,2.4,25.3,4.1,8.4,1.7,16.7,3.7,24.9,5.9,8.3,2.2,16.5,4.5,24.6,7.1,4.1,1.3,8.2,2.6,12.2,4.1,4.1,1.5,9.9,3.8,9.9,3.8-3.5,14.4,8.6,25.8,14.8,28.2,6.1,2.3,18.5,7.2,19.9,8.1l-.5-2.3,6.2,5-.4-3.4,6.4,7.2-.2-3.3,7.8,9.6c-2.1-5-5.1-9.7-8.9-13.7-2.7-2.9-5.6-5.4-8.9-7.7-3.2-2.2-6.7-4.2-10.4-5.5l.3-1c3.9,1.1,7.6,3,11,5.1,3.4,2.1,6.7,4.6,9.6,7.4,5.4,5.1,10.7,13,13.5,20.4.1.3.3.7.4,1.1.2.5.5,1.1.8,1.6,1.1,2,2.4,3.7,3.7,4.9l3.4,3.3c.2.2.2.4,0,.6Z"/>
      <path class="st3" d="M192.8,270c8.5.9,16.9,2.4,25.3,4.1,8.4,1.7,16.7,3.7,24.9,5.9,8.3,2.2,16.5,4.5,24.6,7.1,4.1,1.3,8.2,2.6,12.2,4.1,4.1,1.5,9.9,3.8,9.9,3.8-3.5,14.4,8.6,25.8,14.8,28.2,6.1,2.3,18.5,7.2,19.9,8.1l-.5-2.3,6.2,5-.4-3.4,6.4,7.2-.2-3.3,7.8,9.6c-2.1-5-5.1-9.7-8.9-13.7-2.7-2.9-5.6-5.4-8.9-7.7-3.2-2.2-6.7-4.2-10.4-5.5l.3-1c3.9,1.1,7.6,3,11,5.1,3.4,2.1,6.7,4.6,9.6,7.4,5.4,5.1,10.7,13,13.5,20.4.1.3.3.7.4,1.1.2.5.5,1.1.8,1.6,1.1,2,2.4,3.7,3.7,4.9l3.4,3.3c.2.2.2.4,0,.6,0,.1-.2.2-.4.2s-.1,0-.2,0c-.2,0-.5,0-.7,0-2,0-4.3,1.8-5,3.4,0,.2-.3.3-.5.3-.3,0-.5-.2-.5-.5-.3-4.3-4.1-6.2-7.7-7.9-4.9-2.3-6.1-3.7-6.4-7.2-4-7.9-15.5-13.5-19.4-15.2-2.1-.9-4.2-1.8-6.4-2.4-2.3-.7-4.6-1-6.9-1.6-1.2-.3-2.3-.7-3.4-1.1-1.1-.5-2.2-1.1-3.2-1.7-2.3-1.2-4.4-2.7-6.7-4.1-.3-.2-.6-.4-.9-.5-.1,0-.8-.3-.8-.5-.6-1.7-1.7-5.3-2-7-5.9-1.9-12.3-2.9-18.8-3.3-2.7-.2-5.4-.3-8.2-.3-4.6,0-9.2.2-13.9.6-7.4.7-14.7,1.8-22,3.4-7.2,1.6-14.4,3.7-21.1,6.9l-.5-.8c6.6-3.8,13.7-6.5,20.9-8.8,7.2-2.2,14.6-3.9,22.1-5.2,7.5-1.3,15.1-2.1,22.7-2.2.6,0,1.2,0,1.9,0,3.3,0,6.6.1,9.9.4-5-1.4-10.1-2.6-15.2-3.6-8.3-1.6-16.7-2.9-25.2-3.8-8.5-1-17-1.6-25.5-1.9-2.6,0-5.2-.1-7.9-.1-5.9,0-11.8.2-17.7.8l-.2-1.2c8.5-1.4,17.1-2.1,25.7-2.5,3.6-.1,7.3-.2,10.9-.2s9.9.1,14.9.3c8.6.4,17.2,1.1,25.9,2.2,4.8.6,9.5,1.4,14.3,2.3-.8-.3-1.7-.7-2.5-1.1-3.9-1.6-7.8-3.1-11.8-4.6-7.9-3-16-5.7-24.1-8.3-8.1-2.6-16.2-5-24.4-7.1-8.2-2.1-16.5-4.1-24.9-5.4l.2-1.3M191.8,268.8v1.1c-.1,0-.3,1.3-.3,1.3v1.1c-.1,0,.9.2.9.2,9,1.4,18,3.6,24.7,5.4,7.9,2.1,15.9,4.4,24.4,7.1,8.5,2.7,16.4,5.4,24,8.3,1.7.6,3.3,1.2,4.8,1.8-1.4-.2-2.8-.4-4.3-.6-8.1-1-16.6-1.7-25.9-2.2-5.1-.2-10.1-.3-14.9-.3s-7.4,0-11,.2c-10.1.4-18.3,1.2-25.9,2.5l-1.1.2v1.1c.1,0,.3,1.2.3,1.2v1.1c.1,0,1.2-.1,1.2-.1,5.4-.5,11.1-.8,17.6-.8,2.5,0,5,0,7.8.1,8.2.2,16.7.9,25.4,1.8,8.6,1,17.1,2.2,25.1,3.8,1.5.3,3,.6,4.4.9-.3,0-.5,0-.8,0-7.3.1-14.8.8-22.9,2.2-7.7,1.3-15.2,3.1-22.2,5.3-8.8,2.8-15.3,5.5-21.1,8.9l-1,.6.5,1,.5.8.5.9.9-.5c5.7-2.8,12.2-4.9,20.9-6.8,6.9-1.5,14.3-2.7,21.8-3.4,4.9-.4,9.4-.6,13.8-.6s5.5,0,8.1.3c6.9.5,12.8,1.5,17.9,3.1.4,1.7,1.2,4.1,1.7,5.8l.2.6c.2.6.7.8,1.2,1,0,0,.1,0,.1,0,.3.2.6.3.9.5.8.5,1.6,1,2.4,1.5,1.4.9,2.8,1.8,4.3,2.6.3.2.7.4,1,.6.7.4,1.5.8,2.3,1.2,1.1.4,2.2.8,3.5,1.2,1.1.3,2.1.5,3.2.7,1.2.3,2.5.5,3.7.9,2,.6,4.2,1.4,6.3,2.4,5.5,2.5,15.1,7.6,18.8,14.5.4,4,2.2,5.6,7.1,7.9,4,1.9,6.8,3.5,7.1,7,0,.8.6,1.4,1.4,1.5h0s.1,0,.1,0c.7,0,1.3-.4,1.5-1,.5-1.2,2.5-2.7,3.9-2.7.2,0,.3,0,.4,0,.2,0,.3,0,.5,0,.6,0,1.1-.3,1.4-.8.4-.6.3-1.4-.3-2l-3.4-3.3c-1.4-1.4-2.5-2.9-3.5-4.6-.3-.6-.5-1.1-.8-1.5,0-.2-.1-.4-.2-.5,0-.2-.1-.3-.2-.5-2.9-7.5-8.1-15.5-13.8-20.8-3-2.8-6.3-5.4-9.8-7.6-4.2-2.5-7.8-4.2-11.3-5.2l-1.1-.3-.3,1.1-.3,1-.3,1,1,.4c3.2,1.1,6.4,2.8,10.1,5.4,3.2,2.2,6.1,4.8,8.7,7.5.2.2.4.5.7.7l.2,2.6h0c0,0-4.2-4.7-4.2-4.7l-2.4-2.7.4,3.6v.6c0,0-4-3.2-4-3.2l-2.5-2,.7,3.1h0c-4.4-2-13.8-5.6-17.9-7.1-5.6-2.1-17.5-12.8-14.1-26.8l.2-1-.9-.4c0,0-5.8-2.2-9.9-3.8-4.1-1.4-8.1-2.8-12.3-4.1-7.7-2.4-15.8-4.8-24.7-7.1-9.1-2.4-17.3-4.3-25-5.9-7.4-1.5-16.2-3.2-25.4-4.1h-1.1Z"/>
    </g>
    <g>
      <path class="st2" d="M409.2,360.5c.1.2.3.3.6.2,2.1-.6,5,1.6,5.7,3.3,0,.2.3.3.5.3.3,0,.5-.2.5-.5.3-4.3,4.1-6.2,7.7-7.9,4.9-2.3,6.1-3.7,6.4-7.2,4-7.9,15.5-13.5,19.4-15.2,2.1-.9,4.2-1.8,6.4-2.4s4.6-1,6.9-1.6c1.2-.3,2.3-.7,3.4-1.1s2.2-1.1,3.2-1.7c2.3-1.2,4.4-2.7,6.7-4.1.3-.2.6-.4.9-.5s.8-.3.8-.5c.6-1.7,1.7-5.3,2-7,5.9-1.9,12.3-2.9,18.8-3.3,7.3-.5,14.7-.3,22,.4,7.4.7,14.7,1.8,22,3.4,7.2,1.6,14.4,3.7,21.1,6.9l.5-.8c-6.6-3.8-13.7-6.5-20.9-8.8-7.2-2.2-14.6-3.9-22.1-5.2-7.5-1.3-15.1-2.1-22.7-2.2-3.9,0-7.8,0-11.7.4,5-1.4,10.1-2.6,15.2-3.6,8.3-1.6,16.7-2.9,25.2-3.8,8.5-1,17-1.6,25.5-1.9,8.5-.2,17.1-.2,25.6.7l.2-1.2c-8.5-1.4-17.1-2.1-25.7-2.5-8.6-.3-17.2-.2-25.8.1-8.6.4-17.2,1.1-25.9,2.2-4.8.6-9.5,1.4-14.3,2.3.8-.3,1.7-.7,2.5-1.1,3.9-1.6,7.8-3.1,11.8-4.6,7.9-3,16-5.7,24.1-8.3,8.1-2.6,16.2-5,24.4-7.1,8.2-2.1,16.5-4.1,24.9-5.4l-.2-1.3c-8.5.9-16.9,2.4-25.3,4.1-8.4,1.7-16.7,3.7-24.9,5.9-8.3,2.2-16.5,4.5-24.6,7.1-4.1,1.3-8.2,2.6-12.2,4.1-4.1,1.5-9.9,3.8-9.9,3.8,3.5,14.4-8.6,25.8-14.8,28.2-6.1,2.3-18.5,7.2-19.9,8.1l.5-2.3-6.2,5,.4-3.4-6.4,7.2.2-3.3-7.8,9.6c2.1-5,5.1-9.7,8.9-13.7,2.7-2.9,5.6-5.4,8.9-7.7,3.2-2.2,6.7-4.2,10.4-5.5l-.3-1c-3.9,1.1-7.6,3-11,5.1-3.4,2.1-6.7,4.6-9.6,7.4-5.4,5.1-10.7,13-13.5,20.4-.1.3-.3.7-.4,1.1-.2.5-.5,1.1-.8,1.6-1.1,2-2.4,3.7-3.7,4.9l-3.4,3.3c-.2.2-.2.4,0,.6Z"/>
      <path class="st0" d="M574.6,270l.2,1.3c-8.4,1.3-16.6,3.2-24.9,5.4-8.2,2.1-16.3,4.5-24.4,7.1-8.1,2.6-16.1,5.3-24.1,8.3-3.9,1.5-7.9,3-11.8,4.6-.8.3-1.7.7-2.5,1.1,4.8-.9,9.5-1.7,14.3-2.3,8.6-1.1,17.2-1.8,25.9-2.2,4.9-.2,9.9-.3,14.9-.3s7.3,0,10.9.2c8.6.3,17.2,1,25.7,2.5l-.2,1.2c-5.9-.6-11.8-.8-17.7-.8s-5.3,0-7.9.1c-8.5.2-17,.9-25.5,1.9-8.5.9-16.9,2.2-25.2,3.8-5.1,1-10.2,2.2-15.2,3.6,3.3-.3,6.6-.4,9.9-.4.6,0,1.2,0,1.9,0,7.7.1,15.3.9,22.7,2.2,7.5,1.3,14.9,3,22.1,5.2,7.2,2.3,14.3,4.9,20.9,8.8l-.5.8c-6.7-3.2-13.9-5.3-21.1-6.9-7.2-1.6-14.6-2.7-22-3.4-4.6-.4-9.3-.6-13.9-.6s-5.5,0-8.2.3c-6.5.4-12.9,1.4-18.8,3.3-.3,1.7-1.4,5.2-2,7,0,.1-.7.4-.8.5-.3.2-.6.4-.9.5-2.2,1.3-4.4,2.9-6.7,4.1-1.1.6-2.1,1.2-3.2,1.7-1.1.5-2.3.8-3.4,1.1-2.3.6-4.6,1-6.9,1.6-2.2.6-4.4,1.5-6.4,2.4-3.9,1.8-15.4,7.3-19.4,15.2-.3,3.5-1.5,4.8-6.4,7.2-3.7,1.7-7.4,3.6-7.7,7.9,0,.2-.2.4-.5.5-.2,0-.4-.1-.5-.3-.6-1.5-3-3.4-5-3.4s-.5,0-.7,0c0,0-.1,0-.2,0-.2,0-.3,0-.4-.2-.1-.2,0-.5,0-.6l3.4-3.3c1.2-1.2,2.5-2.8,3.7-4.9.3-.6.6-1.1.8-1.6.1-.3.3-.7.4-1.1,2.8-7.4,8.1-15.3,13.5-20.4,3-2.8,6.2-5.3,9.6-7.4,3.5-2.1,7.1-3.9,11-5.1l.3,1c-3.7,1.3-7.1,3.3-10.4,5.5-3.2,2.3-6.2,4.8-8.9,7.7-3.8,4-6.7,8.7-8.9,13.7l7.8-9.6-.2,3.3,6.4-7.2-.4,3.4,6.2-5-.5,2.3c1.4-.9,13.7-5.8,19.9-8.1,6.1-2.3,18.3-13.7,14.8-28.2,0,0,5.7-2.2,9.9-3.8,4.1-1.4,8.1-2.8,12.2-4.1,8.2-2.6,16.4-4.9,24.6-7.1,8.3-2.1,16.6-4.1,24.9-5.9,8.4-1.7,16.8-3.2,25.3-4.1M575.6,268.8h-1.1c-9.2,1-18,2.7-25.4,4.2-7.7,1.6-15.9,3.5-25,5.9-8.9,2.3-17,4.7-24.7,7.1-4.2,1.3-8.2,2.6-12.3,4.1-4.1,1.5-9.8,3.7-9.9,3.8l-.9.4.2,1c3.4,14-8.5,24.7-14.1,26.9-4.1,1.5-13.4,5.2-17.9,7.2h0s.7-3.1.7-3.1l-2.5,2-4,3.2v-.6c0,0,.5-3.6.5-3.6l-2.4,2.7-4.2,4.7h0c0,0,.2-2.7.2-2.7.2-.2.4-.5.7-.7,2.6-2.8,5.5-5.3,8.7-7.6,3.7-2.6,6.9-4.3,10.1-5.4l1-.4-.3-1-.3-1-.3-1.1-1.1.3c-3.5,1-7.1,2.7-11.3,5.2-3.5,2.2-6.8,4.7-9.8,7.6-5.6,5.3-10.9,13.3-13.7,20.8,0,.2-.1.3-.2.5,0,.2-.1.4-.2.5-.2.5-.4.9-.8,1.5-.9,1.7-2.1,3.2-3.5,4.6l-3.4,3.3c-.5.5-.6,1.4-.2,2,.3.5.8.8,1.4.8s.3,0,.5,0c.1,0,.3,0,.4,0,1.5,0,3.4,1.5,3.9,2.7.3.6.9,1,1.5,1h.2c.8-.2,1.3-.7,1.4-1.5.3-3.5,3.1-5.1,7.1-7,4.8-2.3,6.7-3.9,7.1-7.9,3.6-6.9,13.3-12.1,18.8-14.5,2.1-1,4.3-1.8,6.3-2.4,1.2-.4,2.4-.6,3.7-.9,1-.2,2.1-.5,3.2-.7,1.3-.4,2.5-.7,3.5-1.2.8-.3,1.6-.8,2.3-1.2.3-.2.7-.4,1-.6,1.5-.8,2.9-1.7,4.3-2.6.8-.5,1.6-1,2.4-1.5.3-.2.6-.4.9-.5,0,0,0,0,.1,0,.5-.2,1-.5,1.2-1l.2-.6c.6-1.7,1.4-4.2,1.7-5.8,5.1-1.6,11-2.6,17.9-3.1,2.6-.2,5.3-.3,8.1-.3,4.4,0,8.9.2,13.8.6,7.5.7,14.9,1.8,21.8,3.4,8.7,2,15.1,4.1,20.9,6.8l.9.5.5-.9.5-.8.5-1-1-.6c-5.8-3.4-12.3-6.1-21.1-8.9-7-2.2-14.5-3.9-22.2-5.3-8.2-1.4-15.7-2.1-22.9-2.2-.3,0-.5,0-.8,0,1.4-.3,2.9-.6,4.4-.9,8-1.6,16.5-2.9,25.1-3.8,8.7-1,17.2-1.6,25.4-1.8,2.8,0,5.4-.1,7.8-.1,6.4,0,12.2.3,17.6.8h1.1c0,.1.1-1,.1-1l.2-1.2v-1.1c.1,0-.9-.2-.9-.2-7.6-1.3-15.8-2.1-25.9-2.5-3.6-.1-7.3-.2-11-.2s-9.8.1-14.9.3c-9.4.4-17.9,1.2-25.9,2.2-1.5.2-2.9.4-4.3.6,1.5-.6,3.1-1.2,4.8-1.8,7.6-2.8,15.5-5.5,24-8.3,8.5-2.7,16.5-5,24.4-7.1,6.8-1.8,15.7-4,24.7-5.4l1.1-.2v-1.1c-.1,0-.3-1.3-.3-1.3v-1.1h-.1Z"/>
    </g>
  </g>
  <g>
    <path d="M375.2,308.6v-2.7c5.9-1.7,10.1-3.3,12.4-4.8,2.3-1.5,4.3-3.8,5.9-6.8,1.7-3.1,2.5-6.1,2.5-9.3s-1.6-8-4.7-11.1c-3.2-3.1-7.1-4.7-11.8-4.7-7.3,0-13.5,3.9-18.6,11.6l-2.9-1c3.8-8.7,8.6-15.3,14.4-19.6,5.9-4.4,12.4-6.6,19.6-6.6s13.4,2.2,18.2,6.7c4.8,4.5,7.2,9.7,7.2,15.7s-1.1,7.7-3.3,11.3c-2.2,3.6-5.7,6.8-10.4,9.6,6.1,3,10.8,6.6,14,11,3.2,4.4,4.8,9.8,4.8,16.4,0,11.1-4,20.5-12,28.2-8,7.7-18.7,11.6-32.2,11.6s-15.5-1.5-19.6-4.5c-3-2.1-4.5-4.8-4.5-8.1s.9-4.4,2.6-6.1c1.7-1.7,3.7-2.5,5.9-2.5s3.3.4,4.9,1.1c.8.4,3.8,2.7,8.9,6.8s9.8,6.2,14.3,6.2,7.2-1.5,9.9-4.6c2.8-3.1,4.1-6.9,4.1-11.6,0-7.1-2.5-13.7-7.5-19.8-5-6-12.3-10.2-22-12.5Z"/>
    <path class="st6" d="M375.2,308.6v-2.7c5.9-1.7,10.1-3.3,12.4-4.8,2.3-1.5,4.3-3.8,5.9-6.8,1.7-3.1,2.5-6.1,2.5-9.3s-1.6-8-4.7-11.1c-3.2-3.1-7.1-4.7-11.8-4.7-7.3,0-13.5,3.9-18.6,11.6l-2.9-1c3.8-8.7,8.6-15.3,14.4-19.6,5.9-4.4,12.4-6.6,19.6-6.6s13.4,2.2,18.2,6.7c4.8,4.5,7.2,9.7,7.2,15.7s-1.1,7.7-3.3,11.3c-2.2,3.6-5.7,6.8-10.4,9.6,6.1,3,10.8,6.6,14,11,3.2,4.4,4.8,9.8,4.8,16.4,0,11.1-4,20.5-12,28.2-8,7.7-18.7,11.6-32.2,11.6s-15.5-1.5-19.6-4.5c-3-2.1-4.5-4.8-4.5-8.1s.9-4.4,2.6-6.1c1.7-1.7,3.7-2.5,5.9-2.5s3.3.4,4.9,1.1c.8.4,3.8,2.7,8.9,6.8s9.8,6.2,14.3,6.2,7.2-1.5,9.9-4.6c2.8-3.1,4.1-6.9,4.1-11.6,0-7.1-2.5-13.7-7.5-19.8-5-6-12.3-10.2-22-12.5Z"/>
    <path class="st5" d="M375.2,308.6v-2.7c5.9-1.7,10.1-3.3,12.4-4.8,2.3-1.5,4.3-3.8,5.9-6.8,1.7-3.1,2.5-6.1,2.5-9.3s-1.6-8-4.7-11.1c-3.2-3.1-7.1-4.7-11.8-4.7-7.3,0-13.5,3.9-18.6,11.6l-2.9-1c3.8-8.7,8.6-15.3,14.4-19.6,5.9-4.4,12.4-6.6,19.6-6.6s13.4,2.2,18.2,6.7c4.8,4.5,7.2,9.7,7.2,15.7s-1.1,7.7-3.3,11.3c-2.2,3.6-5.7,6.8-10.4,9.6,6.1,3,10.8,6.6,14,11,3.2,4.4,4.8,9.8,4.8,16.4,0,11.1-4,20.5-12,28.2-8,7.7-18.7,11.6-32.2,11.6s-15.5-1.5-19.6-4.5c-3-2.1-4.5-4.8-4.5-8.1s.9-4.4,2.6-6.1c1.7-1.7,3.7-2.5,5.9-2.5s3.3.4,4.9,1.1c.8.4,3.8,2.7,8.9,6.8s9.8,6.2,14.3,6.2,7.2-1.5,9.9-4.6c2.8-3.1,4.1-6.9,4.1-11.6,0-7.1-2.5-13.7-7.5-19.8-5-6-12.3-10.2-22-12.5Z"/>
  </g>
  <g>
    <path class="st2" d="M262.4,506.4c0-7.1,1.1-13.1,3.4-18.1,2.3-5,6.3-10.6,12.1-16.7,5.7-6.1,9.7-11.3,11.9-15.7,2.2-4.3,3.3-8.8,3.3-13.6s-.7-7.2-2-8.8c-1.4-1.6-3.4-2.5-6-2.5-5.4,0-8,3.2-8,9.7v10.6h-14.7v-9.6c0-8,2-14.1,5.9-18.4,4-4.3,9.7-6.4,17.2-6.4s13.3,2.1,17.2,6.4c4,4.3,5.9,10.4,5.9,18.4s-1.4,11.9-4.3,17.7c-2.9,5.7-7.8,12.3-14.9,19.8-4.6,4.9-7.7,8.9-9.3,11.9-1.6,3.1-2.4,6.3-2.4,9.8v2.1h29.5v14.1h-44.9v-10.7Z"/>
    <path class="st2" d="M324.3,517.1h-5.1v-15h15v13.4l-7.8,18.5h-7.2l5.1-16.9Z"/>
    <path class="st2" d="M350.7,512c-4-4.3-6.1-10.4-6.1-18.4v-52c0-7.9,2-14,6.1-18.4,4-4.3,9.9-6.5,17.5-6.5s13.5,2.2,17.5,6.5c4,4.3,6.1,10.4,6.1,18.4v52c0,7.9-2,14-6.1,18.4-4,4.3-9.9,6.5-17.5,6.5s-13.5-2.2-17.5-6.5ZM376.2,494.7v-53.9c0-6.5-2.7-9.7-8-9.7s-8,3.2-8,9.7v53.9c0,6.5,2.7,9.7,8,9.7s8-3.2,8-9.7Z"/>
    <path class="st2" d="M407.2,512c-4-4.3-6.1-10.4-6.1-18.4v-52c0-7.9,2-14,6.1-18.4,4-4.3,9.9-6.5,17.5-6.5s13.5,2.2,17.5,6.5c4,4.3,6.1,10.4,6.1,18.4v52c0,7.9-2,14-6.1,18.4-4,4.3-9.9,6.5-17.5,6.5s-13.5-2.2-17.5-6.5ZM432.7,494.7v-53.9c0-6.5-2.7-9.7-8-9.7s-8,3.2-8,9.7v53.9c0,6.5,2.7,9.7,8,9.7s8-3.2,8-9.7Z"/>
    <path class="st2" d="M463.6,512c-4-4.3-6.1-10.4-6.1-18.4v-52c0-7.9,2-14,6.1-18.4,4-4.3,9.9-6.5,17.5-6.5s13.5,2.2,17.5,6.5c4,4.3,6.1,10.4,6.1,18.4v52c0,7.9-2,14-6.1,18.4-4,4.3-9.9,6.5-17.5,6.5s-13.5-2.2-17.5-6.5ZM489.2,494.7v-53.9c0-6.5-2.7-9.7-8-9.7s-8,3.2-8,9.7v53.9c0,6.5,2.7,9.7,8,9.7s8-3.2,8-9.7Z"/>
    <path class="st1" d="M339.5,541.2h13.3c4.5,0,7.9,1.1,9.9,3.2,2.1,2.1,3.1,5.4,3.1,9.7v2.2c0,2.9-.5,5.2-1.4,7.1-.9,1.8-2.4,3.1-4.3,3.9v.2c4.4,1.5,6.6,5.4,6.6,11.7v4.8c0,4.3-1.1,7.6-3.4,9.9-2.3,2.3-5.6,3.4-10,3.4h-13.9v-56.2ZM351.8,564.1c1.8,0,3.1-.5,4-1.4.9-.9,1.3-2.4,1.3-4.6v-3.1c0-2-.4-3.5-1.1-4.4-.7-.9-1.9-1.4-3.4-1.4h-4.3v14.8h3.4ZM353.4,589.3c1.6,0,2.7-.4,3.4-1.2.7-.8,1.1-2.3,1.1-4.3v-4.9c0-2.6-.4-4.3-1.3-5.3-.9-1-2.3-1.5-4.4-1.5h-3.9v17.2h5.1Z"/>
    <path class="st1" d="M371.9,541.2h13.5c4.4,0,7.7,1.2,9.9,3.5,2.2,2.4,3.3,5.8,3.3,10.3v28.4c0,4.5-1.1,8-3.3,10.3-2.2,2.4-5.5,3.5-9.9,3.5h-13.5v-56.2ZM385.2,589.3c1.4,0,2.6-.4,3.3-1.3.8-.9,1.2-2.2,1.2-4.2v-29.2c0-1.9-.4-3.3-1.2-4.2-.8-.9-1.9-1.3-3.3-1.3h-4.5v40.1h4.5Z"/>
    <path class="st1" d="M411.1,549.2h-9.2v-8h27.3v8h-9.2v48.1h-8.8v-48.1Z"/>
  </g>
</svg>