<?xml version="1.0" encoding="UTF-8"?>
<svg id="Layer_1" xmlns="http://www.w3.org/2000/svg" version="1.1" viewBox="0 0 208.5 193.9">
  <!-- Generator: Adobe Illustrator 29.8.2, SVG Export Plug-In . SVG Version: 2.1.1 Build 3)  -->
  <defs>
    <style>
      .st0 {
        fill: #e2136e;
      }

      .st1 {
        fill: #d12053;
      }

      .st2 {
        fill: #9e1638;
      }
    </style>
  </defs>
  <polygon class="st1" points="77.9 92.9 89.1 143.5 162.8 106.2 77.9 92.9"/>
  <polygon class="st0" points="98.8 17.3 77.9 92.9 162.8 106.2 98.8 17.3"/>
  <polygon class="st1" points="8.9 6.2 96.7 16.6 75.9 91.9 8.9 6.2"/>
  <polygon class="st2" points="8.1 21 17.9 21 45.4 56 8.1 21"/>
  <polygon class="st1" points="165.2 105.7 139.6 70.4 180.9 62.9 165.2 105.7"/>
  <polygon class="st0" points="160.9 116.1 163.5 108.2 99.1 140.9 160.9 116.1"/>
  <polygon class="st2" points="76.1 94.9 89.5 155.3 49.6 187.8 76.1 94.9"/>
  <polygon class="st0" points="176.9 80.9 200.3 80.5 183.4 63.3 176.9 80.9"/>
</svg>