<?xml version="1.0" encoding="UTF-8"?>
<svg id="Layer_1" xmlns="http://www.w3.org/2000/svg" version="1.1" xmlns:cc="http://creativecommons.org/ns#" xmlns:dc="http://purl.org/dc/elements/1.1/" xmlns:inkscape="http://www.inkscape.org/namespaces/inkscape" xmlns:rdf="http://www.w3.org/1999/02/22-rdf-syntax-ns#" xmlns:sodipodi="http://sodipodi.sourceforge.net/DTD/sodipodi-0.dtd" xmlns:svg="http://www.w3.org/2000/svg" viewBox="0 0 144.3 138.4">
  <!-- Generator: Adobe Illustrator 29.8.2, SVG Export Plug-In . SVG Version: 2.1.1 Build 3)  -->
  <defs>
    <style>
      .st0 {
        fill: #f7941d;
      }

      .st1 {
        fill: #ed1c24;
      }
    </style>
  </defs>
  <sodipodi:namedview id="namedview1452" bordercolor="#666666" borderopacity="1" gridtolerance="10" guidetolerance="10" inkscape:current-layer="Layer_1" inkscape:cx="105.93355" inkscape:cy="33.742072" inkscape:pageopacity="0" inkscape:pageshadow="2" inkscape:window-height="705" inkscape:window-maximized="1" inkscape:window-width="1366" inkscape:window-x="-8" inkscape:window-y="-8" inkscape:zoom="1.8101934" objecttolerance="10" pagecolor="#ffffff" showgrid="false"/>
  <g id="g1438">
    <g id="g1406">
      <path id="path1392" class="st1" d="M127.1,73.8c0,1.8,0,3.4-.3,4.9-.5,7.3-2.3,14-5.2,20.2-1,2.6-2.3,4.9-3.9,7.3-10.9,17.1-30.1,28.5-51.9,28.5s-18.2-2.1-25.9-5.7c-20.8-9.6-35.3-30.9-35.3-55.3S18.7,28.9,38.7,19c-1.6,2.1-3.1,4.2-4.4,6.5,0,.3-.3.3-.3.5h0c-.8.8-1.6,1.3-2.3,2.1-1,.8-1.8,1.8-2.9,2.6l-.5.5-.5.5c-.3.3-.5.8-1,1-.5.8-1.3,1.6-1.8,2.3-2.6,3.4-4.7,7-6.2,10.9-.3.3-.3.8-.5,1-.3.5-.3,1-.5,1.3,0,.3-.3.5-.3.8-.3.8-.5,1.3-.8,2.1-.3.5-.3,1-.5,1.3,0,.3-.3.5-.3.8,0,.5-.3,1-.3,1.6-.3,1.6-.5,3.1-.8,4.7,0,.5,0,.8-.3,1.3v2.3h0v3.9c0,16.6,7.5,31.7,19.7,41.3,9.3,7.5,21,12.2,33.7,12.2s22.3-3.6,31.1-10.1c6.5-4.7,11.7-10.6,15.6-17.6.5-1,1-1.8,1.6-2.9h0c3.1-6.5,4.9-13.5,4.9-21v-1.8c0-1.8,0-3.4-.3-5.2l.3.3c.8.8,1.6,1.3,2.3,2.1.8-1.3,1.6-2.3,2.3-3.6.5,2.3.8,4.7,1,7.3.3,2.3.3,4.2.3,6h0Z" inkscape:connector-curvature="0"/>
      <path id="path1394" class="st0" d="M73.2,24.7L61.8,3.7c-18.9,8.6-31.9,27.5-31.9,49.6s3.4,21.5,9.1,30.1c-.5-2.9-.5-5.7-.5-8.8.3-22.6,14.5-41.8,34.8-49.8Z" inkscape:connector-curvature="0"/>
      <path id="path1396" class="st1" d="M82.3,35.1c4.7-1.3,9.9-1.8,14.8-1.8s6.5.3,9.3.8l-.3-9.3-.5-18.7c-2.1-.3-4.4-.5-6.7-.5-10.4,0-20,3.4-27.8,8.8l6.2,11.4c-11.2,3.9-20.2,11.7-25.9,21.8-2.9,4.9-4.9,10.6-5.7,16.6,1.6-3.1,3.4-6,5.4-8.6,7.5-9.9,18.4-17.4,31.1-20.5Z" inkscape:connector-curvature="0"/>
      <path id="path1398" class="st0" d="M109.5,24.5l.5,13.2c-4.4-1.3-8.8-2.1-13.8-2.1-9.1,0-17.6,2.6-25.2,7-9.3,5.7-16.6,14.8-20.2,25.4,3.6-4.9,8-9.3,13.2-12.7,7.5-4.9,16.6-7.8,26.2-7.8s14,1.6,20.2,4.4c4.7,2.1,8.8,4.9,12.5,8.6l7.3-10.9,9.3-14.3c-8.3-6.7-18.7-10.9-30.1-10.9Z" inkscape:connector-curvature="0"/>
      <path id="path1400" class="st0" d="M121.2,67.5v1.8c0,10.9-4.4,20-4.9,21h0c-.5,1-1,1.8-1.6,2.9-3.9,7-9.1,13-15.6,17.6-8.8,6.2-19.5,10.1-31.1,10.1s-24.6-4.4-33.7-12.2c-11.9-9.9-19.7-24.6-19.7-41.3v-3.9h0v-2.3c0-.5,0-.8.3-1.3.3-1.6.5-3.1.8-4.7,0-.5.3-1,.3-1.6s.3-.5.3-.8c.3-.5.3-1,.5-1.3.3-.8.5-1.6.8-2.1,0-.3.3-.5.3-.8.3-.5.3-1,.5-1.3.3-.3.3-.8.5-1,1.6-3.9,3.9-7.5,6.2-10.9.5-.8,1.3-1.6,1.8-2.3.3-.3.5-.8,1-1,.3-.3.3-.5.5-.5.3-.3.3-.5.5-.5.8-1,1.8-1.8,2.9-2.6.8-.8,1.6-1.3,2.3-2.1h0c0,.3-.3.3-.3.5s-.3.5-.3.5c-3.1,6.2-5.2,13.8-6,21.5-.3,2.1-.3,4.2-.3,6.5,0,28,16.3,50.6,36.6,50.6h2.1c2.9,0,5.7-.5,8.6-1,13.8-3.6,23.9-16.3,23.9-31.1v-.8c-.3-8.8-3.9-16.9-9.9-22.3,4.2,0,8.3.8,12.2,1.8,7.5,1.8,14.3,5.4,20.2,10.1l.3.3c-.3,1,0,2.9,0,4.4Z" inkscape:connector-curvature="0"/>
      <g id="g1404">
        <path id="path1402" class="st0" d="M121.2,67.5v1.8c0,11.4-5.2,21.3-5.2,21.3-.5,1-1,1.8-1.6,2.9-3.9,7-9.3,13-15.8,17.6-9.1,6.7-20,10.1-31.4,10.1s-24.4-4.4-34-12.2c-12.5-10.1-19.7-25.4-19.7-41.5s7.3-31.4,19.7-41.5l.5-.5c0,.3-.3.3-.3.5s-.3.3-.3.5c-12.2,10.1-19.2,24.9-19.2,41s7,30.9,19.5,41.3c9.3,7.8,21.5,11.9,33.7,11.9s22.1-3.4,31.1-10.1c6.5-4.7,11.7-10.6,15.6-17.6.5-1,1-1.8,1.3-2.9,0,0,5.2-9.6,5.2-21v-1.8c0-1.8,0-3.4-.3-5.2v-.3l.3.3.3.3c.5,2.1.5,3.6.5,5.2Z" inkscape:connector-curvature="0"/>
      </g>
    </g>
  </g>
</svg>